<svg width="56" height="56" viewBox="0 0 56 56" fill="none" xmlns="http://www.w3.org/2000/svg">
<path d="M51.159 15.7901L51.159 15.7914C51.1591 15.9078 51.1362 16.0231 51.0917 16.1307C51.0472 16.2383 50.9819 16.3361 50.8995 16.4184C50.8172 16.5007 50.7194 16.566 50.6118 16.6106C50.5042 16.6551 50.3889 16.678 50.2725 16.6779H50.2722H44.7578V14.9043L50.2722 14.9043L50.2732 14.9043C50.3896 14.9041 50.5049 14.9268 50.6125 14.9712C50.7201 15.0157 50.8178 15.0809 50.9001 15.1632C50.9824 15.2455 51.0477 15.3432 51.0921 15.4508C51.1365 15.5584 51.1593 15.6737 51.159 15.7901Z" fill="#D52133" stroke="#1A1E25"/>
<path d="M10.6281 24.7042H10.6286H51.1587V31.0103H38.0823C36.1695 31.0006 34.3291 31.7411 32.9562 33.0729C31.5828 34.4051 30.7866 36.2226 30.7385 38.1353H30.7385L30.7384 38.1403C30.7239 39.1006 30.9004 40.0542 31.2578 40.9457C31.6152 41.8371 32.1462 42.6486 32.8201 43.3329C33.4939 44.0172 34.2971 44.5608 35.1829 44.9319C36.0687 45.303 37.0194 45.4943 37.9798 45.4946H37.98H51.1587V51.9528C51.1568 52.6703 50.871 53.3578 50.3638 53.8652C49.8569 54.3722 49.1699 54.6582 48.453 54.6606C48.4526 54.6606 48.4522 54.6606 48.4517 54.6606H7.54918C7.54877 54.6606 7.54836 54.6606 7.54795 54.6606C6.83086 54.6582 6.14379 54.3723 5.6367 53.8652C5.12948 53.358 4.84355 52.6707 4.84131 51.9534V24.5507C4.84131 24.4054 4.84182 24.1386 4.84245 23.8085C4.84429 22.8417 4.84717 21.3323 4.84133 20.7448C4.85242 19.1914 5.47748 17.7055 6.58017 16.6112C7.68383 15.5161 9.17618 14.9024 10.731 14.9043H10.7316H11.2435V16.6779H10.7041H10.704C9.63664 16.6783 8.61172 17.0958 7.84796 17.8414C7.08421 18.587 6.64212 19.6016 6.61606 20.6686L6.616 20.6686L6.61593 20.6764C6.61363 20.9408 6.63891 21.2046 6.69134 21.4637C6.8709 22.3758 7.3613 23.1974 8.07893 23.7883C8.79696 24.3796 9.69795 24.7033 10.6281 24.7042ZM10.7041 17.1779H11.2435H10.7041ZM11.2435 14.4043H10.7316C9.04464 14.4022 7.42545 15.0681 6.22798 16.2563C5.03052 17.4446 4.3522 19.0586 4.34131 20.7456L11.2435 14.4043Z" fill="#D52133" stroke="black"/>
<path d="M34.7931 41.4391C33.9477 40.5937 33.4722 39.4476 33.4707 38.2521C33.4724 37.0569 33.9481 35.9111 34.7934 35.0661C35.6388 34.221 36.7849 33.7458 37.9803 33.7446H51.1588V42.7614H37.9806C36.7849 42.7601 35.6386 42.2845 34.7931 41.4391ZM41.9398 36.5997C41.7146 36.5065 41.4734 36.4585 41.2297 36.4585H38.2186C37.7265 36.4585 37.2546 36.654 36.9066 37.0019C36.5587 37.3499 36.3632 37.8218 36.3632 38.3139C36.3632 38.806 36.5587 39.2779 36.9066 39.6259C37.2546 39.9738 37.7265 40.1693 38.2186 40.1693H41.2297C41.4734 40.1693 41.7146 40.1213 41.9398 40.0281C42.1649 39.9348 42.3694 39.7982 42.5417 39.6259C42.714 39.4536 42.8506 39.249 42.9439 39.0239C43.0371 38.7988 43.0851 38.5575 43.0851 38.3139C43.0851 38.0702 43.0371 37.829 42.9439 37.6039C42.8506 37.3788 42.714 37.1742 42.5417 37.0019C42.3694 36.8296 42.1649 36.693 41.9398 36.5997Z" fill="#003049" stroke="#1A1E25"/>
<path d="M17.3183 1.33936H19.2543V21.2867H14.4028V4.25485V4.25484C14.4028 3.87197 14.4782 3.49285 14.6247 3.13912C14.7713 2.7854 14.986 2.46399 15.2567 2.19326C15.5275 1.92253 15.8489 1.70778 16.2026 1.56127C16.5563 1.41475 16.9355 1.33935 17.3183 1.33936H17.3183Z" fill="#003049" stroke="#1A1E25"/>
<path d="M33.3255 14.5566V14.5563V5.23042V5.23012C33.3258 4.78924 33.5012 4.36651 33.813 4.0549C34.1249 3.74331 34.5477 3.56831 34.9885 3.56838L33.3255 14.5566ZM33.3255 14.5566C33.3258 14.9975 33.5012 15.4202 33.813 15.7318C34.1249 16.0434 34.5477 16.2184 34.9885 16.2184C34.9886 16.2184 34.9886 16.2184 34.9887 16.2184M33.3255 14.5566L34.9887 16.2184M38.5358 4.4087L38.8894 4.05514C39.0437 4.20948 39.1661 4.39272 39.2497 4.59439L38.7877 4.78571L39.2497 4.59439C39.3332 4.79604 39.3761 5.01217 39.3761 5.23043L38.5358 4.4087ZM38.5358 4.4087L38.8894 4.05514C38.735 3.9008 38.5518 3.77837 38.3501 3.69485C38.1485 3.61134 37.9323 3.56836 37.7141 3.56838C37.7141 3.56838 37.714 3.56838 37.714 3.56838M38.5358 4.4087L37.714 3.56838M34.9887 16.2184H37.714H34.9887ZM37.714 3.56838H34.9887H37.714ZM41.5973 21.2867H24.7778V1.33936H38.6827C38.6827 1.33936 38.6828 1.33936 38.6828 1.33936C39.4559 1.33955 40.1972 1.64679 40.7437 2.19351C41.2903 2.74025 41.5973 3.48171 41.5973 4.25481V4.25485V21.2867ZM39.3761 14.5562L39.3761 5.23047L37.7141 16.2184C37.9323 16.2184 38.1485 16.1754 38.3501 16.0919C38.5518 16.0084 38.735 15.8859 38.8894 15.7316C39.0437 15.5772 39.1661 15.394 39.2497 15.1923C39.3332 14.9907 39.3761 14.7746 39.3761 14.5563C39.3761 14.5563 39.3761 14.5563 39.3761 14.5562Z" fill="#003049" stroke="#1A1E25"/>
</svg>
