<svg width="56" height="56" viewBox="0 0 56 56" fill="none" xmlns="http://www.w3.org/2000/svg">
<g clip-path="url(#clip0_750_12799)">
<path d="M55.5198 28.0099C55.5198 43.2032 43.2032 55.5198 28.0099 55.5198C12.8166 55.5198 0.5 43.2032 0.5 28.0099C0.5 12.8166 12.8166 0.5 28.0099 0.5C43.2032 0.5 55.5198 12.8166 55.5198 28.0099Z" fill="#D52133" stroke="black"/>
<path d="M51.5 28C51.5 40.9787 40.9787 51.5 28 51.5C15.0213 51.5 4.5 40.9787 4.5 28C4.5 15.0213 15.0213 4.5 28 4.5C40.9787 4.5 51.5 15.0213 51.5 28Z" fill="white" stroke="black"/>
<path d="M25.8043 15.8278C23.0475 16.1172 20.778 17.8078 19.6052 20.4733C18.2162 23.6015 19.0634 25.9515 19.5351 26.8926C19.5813 26.8788 19.6282 26.8664 19.6755 26.8555L19.7878 27.342L19.8661 31.3986L19.6051 31.2961C18.9647 31.0445 18.633 30.4625 18.633 29.8254V29.5639H18.6141H18.4019H14.3808C14.3821 29.5639 14.3966 29.5633 14.418 29.5539C14.4393 29.5445 14.4586 29.53 14.4734 29.5132C14.5011 29.4817 14.5038 29.4546 14.5038 29.4446C14.5038 29.4346 14.5011 29.4076 14.4734 29.3761C14.4586 29.3593 14.4393 29.3448 14.418 29.3354C14.3966 29.3259 14.3821 29.3254 14.3808 29.3254H18.4019H18.623L18.6326 29.0639L18.6333 29.0453C18.6559 28.4357 19.0386 27.8959 19.6022 27.6705L19.8415 27.5748L20.0343 27.4977V27.4966V27.4935V27.4904V27.4872V27.4841V27.481V27.4779V27.4747V27.4716V27.4685V27.4653V27.4622V27.4591V27.456V27.4528V27.4497V27.4466V27.4435V27.4403V27.4372V27.4341C20.0343 27.4254 20.0345 27.4168 20.0349 27.4084L20.003 27.3427L19.658 26.6319C18.8193 24.9043 18.8879 22.6143 19.8039 20.5732L19.8051 20.5706L19.8051 20.5706C19.8062 20.5683 19.8073 20.5659 19.8083 20.5636C19.8084 20.5633 19.8086 20.5631 19.8087 20.5629C20.9734 18.0132 23.1417 16.372 25.7948 16.0772L25.8097 16.0755L25.8209 16.0749L25.8043 15.8278ZM25.8043 15.8278L25.8302 16.0745L25.8043 15.8278ZM34.2347 27.07L34.2332 27.0723C34.195 26.8072 34.1525 26.5392 34.1033 26.2716L34.5739 26.2822C34.4919 26.5841 34.3781 26.8496 34.2347 27.07ZM29.7917 24.5758C29.792 24.5757 29.7941 24.5755 29.7975 24.5752C29.7931 24.5757 29.7913 24.5759 29.7917 24.5758Z" fill="#1A1E25" stroke="#003049"/>
<path d="M33.273 28.5639H21.0342V27.49C21.037 27.4815 21.0405 27.4711 21.0448 27.4587C21.0659 27.3987 21.0982 27.3147 21.1404 27.2103C21.2241 27.0029 21.3385 26.7352 21.4589 26.4594C21.5965 26.1442 21.7396 25.8234 21.8499 25.5779C23.2264 25.9045 24.741 25.7641 26.141 25.4011C27.2057 25.1252 28.2282 24.7144 29.1092 24.2554C28.9306 24.5398 28.9532 24.8665 29.0833 25.1106C29.2179 25.3628 29.4922 25.5733 29.8406 25.5733C29.8642 25.5733 29.8841 25.5714 29.8841 25.5714L29.8996 25.57L29.9266 25.5669C29.9455 25.5646 29.9701 25.5613 29.9995 25.557C30.0584 25.5484 30.1396 25.5352 30.2388 25.5166C30.4371 25.4794 30.7102 25.4197 31.0233 25.3288C31.4954 25.1917 32.0759 24.9788 32.6317 24.654C32.9517 25.4543 33.1345 26.4144 33.2712 27.4138C33.2802 27.762 33.277 28.1159 33.2737 28.4797C33.2735 28.5077 33.2732 28.5358 33.273 28.5639ZM21.026 27.5163C21.026 27.5163 21.0261 27.5162 21.0261 27.5161L21.026 27.5163Z" fill="white" stroke="black"/>
<path d="M32.585 21.1336C32.9135 21.517 33.2174 22.029 33.4613 22.639C33.3227 22.5356 33.1791 22.4966 33.1165 22.4796C33.1102 22.4779 33.1048 22.4765 33.1002 22.4752L33.0516 22.4613L33.0012 22.4574C32.7226 22.436 32.5169 22.5615 32.3872 22.6556C32.3278 22.6986 32.2663 22.7489 32.2122 22.793L32.1995 22.8035C32.1385 22.8533 32.0765 22.9036 32.0049 22.9571C31.8273 23.0898 31.5738 23.2547 31.1755 23.4184C31.1832 23.0587 31.1154 22.7264 30.9936 22.4545C30.8854 22.213 30.7125 21.9723 30.4609 21.8353C30.1757 21.6799 29.8342 21.6873 29.5463 21.8966L29.5463 21.8966L29.5409 21.9007C28.5111 22.6712 27.0736 23.3415 25.6084 23.7023C24.1401 24.0639 22.72 24.0964 21.679 23.6857C21.2142 23.4692 20.7334 23.7239 20.5438 24.1032L20.5367 24.1173L20.5306 24.1318L20.1677 24.9889C19.9391 23.7652 20.1096 22.3344 20.7155 20.9839C21.7428 18.7305 23.6182 17.3301 25.8904 17.0726C27.0677 17.0131 27.9916 17.0223 28.6695 17.0976C29.0098 17.1354 29.2744 17.1884 29.4714 17.2515C29.669 17.3147 29.7672 17.3781 29.8097 17.418C29.8268 17.4356 29.8397 17.4549 29.8489 17.5144C29.862 17.5997 29.8599 17.7215 29.8443 17.9396L29.8435 17.9512L29.8432 17.9628L29.8427 17.9818C29.8353 18.2761 29.8235 18.7417 30.0168 19.1927C30.2259 19.6806 30.6419 20.0883 31.3532 20.3413C31.3645 20.3466 31.3878 20.3572 31.4168 20.3669C31.4535 20.3791 31.4882 20.3859 31.5169 20.3898C31.8453 20.4656 32.2173 20.7043 32.585 21.1336Z" fill="#1A1E25" stroke="black"/>
<path fill-rule="evenodd" clip-rule="evenodd" d="M33.7703 29.8257H20.5342L20.5494 31.3336C20.7931 34.7607 23.6414 37.4871 27.1446 37.4871C30.6478 37.4871 33.5266 34.7454 33.755 31.3031L33.7703 29.8257Z" fill="white"/>
<mask id="path-7-inside-1_750_12799" fill="white">
<path fill-rule="evenodd" clip-rule="evenodd" d="M34.5166 28.1045V29.0641H35.1411C35.1411 28.6224 34.8822 28.2568 34.5166 28.1045Z"/>
</mask>
<path fill-rule="evenodd" clip-rule="evenodd" d="M34.5166 28.1045V29.0641H35.1411C35.1411 28.6224 34.8822 28.2568 34.5166 28.1045Z" fill="#F3A766"/>
<path d="M34.5166 28.1045L34.9012 27.1814L33.5166 26.6045V28.1045H34.5166ZM34.5166 29.0641H33.5166V30.0641H34.5166V29.0641ZM35.1411 29.0641V30.0641H36.1411V29.0641H35.1411ZM33.5166 28.1045V29.0641H35.5166V28.1045H33.5166ZM34.5166 30.0641H35.1411V28.0641H34.5166V30.0641ZM36.1411 29.0641C36.1411 28.2187 35.6394 27.489 34.9012 27.1814L34.132 29.0276C34.1297 29.0266 34.1312 29.0265 34.1339 29.0305C34.1351 29.0323 34.1367 29.0352 34.138 29.0397C34.1394 29.0441 34.1411 29.0518 34.1411 29.0641H36.1411Z" fill="black" mask="url(#path-7-inside-1_750_12799)"/>
<mask id="path-9-inside-2_750_12799" fill="white">
<path fill-rule="evenodd" clip-rule="evenodd" d="M35.1411 29.8257H34.5166V30.7853C34.8822 30.6177 35.1411 30.2522 35.1411 29.8257Z"/>
</mask>
<path fill-rule="evenodd" clip-rule="evenodd" d="M35.1411 29.8257H34.5166V30.7853C34.8822 30.6177 35.1411 30.2522 35.1411 29.8257Z" fill="#F3A766"/>
<path d="M35.1411 29.8257H36.1411V28.8257H35.1411V29.8257ZM34.5166 29.8257V28.8257H33.5166V29.8257H34.5166ZM34.5166 30.7853H33.5166V32.3436L34.9333 31.6943L34.5166 30.7853ZM35.1411 28.8257H34.5166V30.8257H35.1411V28.8257ZM33.5166 29.8257V30.7853H35.5166V29.8257H33.5166ZM34.9333 31.6943C35.6287 31.3756 36.1411 30.6705 36.1411 29.8257H34.1411C34.1411 29.8329 34.1397 29.8392 34.1339 29.8479C34.1268 29.8586 34.1147 29.8694 34.0999 29.8762L34.9333 31.6943Z" fill="black" mask="url(#path-9-inside-2_750_12799)"/>
<mask id="path-11-inside-3_750_12799" fill="white">
<path fill-rule="evenodd" clip-rule="evenodd" d="M19.7883 29.0639V28.1348C19.4075 28.2871 19.1485 28.6526 19.1333 29.0639H19.7883Z"/>
</mask>
<path fill-rule="evenodd" clip-rule="evenodd" d="M19.7883 29.0639V28.1348C19.4075 28.2871 19.1485 28.6526 19.1333 29.0639H19.7883Z" fill="#F3A766"/>
<path d="M19.7883 29.0639V30.0639H20.7883V29.0639H19.7883ZM19.7883 28.1348H20.7883V26.6577L19.4169 27.2063L19.7883 28.1348ZM19.1333 29.0639L18.134 29.0269L18.0956 30.0639H19.1333V29.0639ZM20.7883 29.0639V28.1348H18.7883V29.0639H20.7883ZM19.4169 27.2063C18.6704 27.5049 18.1639 28.2188 18.134 29.0269L20.1326 29.1009C20.1328 29.0948 20.1349 29.0871 20.1407 29.0789C20.1466 29.0706 20.1535 29.0657 20.1596 29.0632L19.4169 27.2063ZM19.1333 30.0639H19.7883V28.0639H19.1333V30.0639Z" fill="black" mask="url(#path-11-inside-3_750_12799)"/>
<mask id="path-13-inside-4_750_12799" fill="white">
<path fill-rule="evenodd" clip-rule="evenodd" d="M19.7883 29.8257H19.1333C19.1333 30.2826 19.3618 30.6634 19.7883 30.831V29.8257Z"/>
</mask>
<path fill-rule="evenodd" clip-rule="evenodd" d="M19.7883 29.8257H19.1333C19.1333 30.2826 19.3618 30.6634 19.7883 30.831V29.8257Z" fill="#F3A766"/>
<path d="M19.7883 29.8257H20.7883V28.8257H19.7883V29.8257ZM19.1333 29.8257V28.8257H18.1333V29.8257H19.1333ZM19.7883 30.831L19.4226 31.7617L20.7883 32.2982V30.831H19.7883ZM19.7883 28.8257H19.1333V30.8257H19.7883V28.8257ZM18.1333 29.8257C18.1333 30.643 18.5682 31.4261 19.4226 31.7617L20.1539 29.9002C20.1398 29.8947 20.1361 29.891 20.1381 29.8926C20.1402 29.8943 20.1426 29.897 20.1441 29.8994C20.148 29.9055 20.1333 29.8873 20.1333 29.8257H18.1333ZM20.7883 30.831V29.8257H18.7883V30.831H20.7883Z" fill="black" mask="url(#path-13-inside-4_750_12799)"/>
</g>
<defs>
<clipPath id="clip0_750_12799">
<rect width="56" height="56" fill="white"/>
</clipPath>
</defs>
</svg>
