<svg width="56" height="56" viewBox="0 0 56 56" fill="none" xmlns="http://www.w3.org/2000/svg">
<path d="M45.6999 17.007V49C45.6999 52.5848 42.7847 55.5 39.1999 55.5H8.3999C4.81511 55.5 1.8999 52.5848 1.8999 49V7C1.8999 3.41521 4.81511 0.5 8.3999 0.5H29.2036L45.6999 17.007Z" fill="#D52133" stroke="#1A1E25"/>
<path d="M29.8999 1.19672L44.9934 16.3H36.3999C32.8151 16.3 29.8999 13.3848 29.8999 9.8V1.19672Z" fill="#003049" stroke="#1A1E25"/>
<path d="M23.8001 28.0001C23.8001 28.7767 23.1767 29.4001 22.4001 29.4001H14.0001C13.2235 29.4001 12.6001 28.7767 12.6001 28.0001C12.6001 27.2235 13.2235 26.6001 14.0001 26.6001H22.4001C23.1767 26.6001 23.8001 27.2235 23.8001 28.0001Z" fill="white"/>
<path d="M32.2001 33.6002C32.2001 34.3768 31.5767 35.0002 30.8001 35.0002H14.0001C13.2235 35.0002 12.6001 34.3768 12.6001 33.6002C12.6001 32.8236 13.2235 32.2002 14.0001 32.2002H30.8001C31.5767 32.2002 32.2001 32.8236 32.2001 33.6002Z" fill="white"/>
<path d="M32.1563 39.1998C32.1563 39.9764 31.5329 40.5998 30.7563 40.5998H14.0001C13.2235 40.5998 12.6001 39.9764 12.6001 39.1998C12.6001 38.4232 13.2235 37.7998 14.0001 37.7998H30.7563C31.5329 37.7998 32.1563 38.4232 32.1563 39.1998Z" fill="white"/>
<path d="M54.1 46.1999C54.1 51.3362 49.9363 55.4999 44.8 55.4999C39.6638 55.4999 35.5 51.3362 35.5 46.1999C35.5 41.0637 39.6638 36.8999 44.8 36.8999C49.9363 36.8999 54.1 41.0637 54.1 46.1999Z" fill="white" stroke="#1A1E25"/>
<path d="M48.5952 45.2156L45.7952 42.4156L45.7842 42.4047C45.7514 42.3719 45.7186 42.35 45.6858 42.3172L45.6749 42.3062C45.6421 42.2844 45.6202 42.2625 45.5874 42.2406L45.5546 42.2188L45.478 42.175L45.4342 42.1531C45.4014 42.1312 45.3686 42.1203 45.3249 42.1094L45.2811 42.0984L45.2046 42.0656L45.1608 42.0547L45.0733 42.0328L45.0405 42.0219C44.953 42.0109 44.8764 42 44.7889 42H44.778C44.7342 42 44.7014 42 44.6686 42H44.6467C44.5592 42.0109 44.4827 42.0219 44.3952 42.0547L44.3733 42.0656C44.3405 42.0766 44.3077 42.0875 44.2749 42.0984L44.2421 42.1094C44.2092 42.1203 44.1655 42.1422 44.1327 42.1641H44.1217C44.0889 42.1859 44.0452 42.2078 44.0124 42.2297L43.9905 42.2516C43.9686 42.2734 43.9358 42.2844 43.9139 42.3062L43.8811 42.3281C43.8483 42.3609 43.8155 42.3828 43.7827 42.4156L41.0155 45.2047C40.4796 45.7625 40.4905 46.6484 41.0483 47.1844C41.5952 47.7094 42.4592 47.7094 42.9952 47.1844L43.4108 46.7688V49C43.4108 49.7766 44.0342 50.4 44.8108 50.4C45.5874 50.4 46.2108 49.7766 46.2108 49V46.7797L46.6264 47.1953C47.1624 47.7531 48.0483 47.7641 48.6061 47.2281C49.1639 46.6922 49.1749 45.8063 48.6389 45.2484C48.6171 45.2266 48.6061 45.2156 48.5952 45.2156Z" fill="#003049"/>
</svg>
