<svg width="24" height="24" viewBox="0 0 24 24" fill="none" xmlns="http://www.w3.org/2000/svg">
<g clip-path="url(#clip0_572_9850)">
<path d="M16.1251 15.375C14.5501 16.95 14.5501 19.425 16.1251 21L21.7501 15.375C20.1751 13.875 17.7001 13.875 16.1251 15.375Z" stroke="#7A7A7A" stroke-width="1.5" stroke-miterlimit="10" stroke-linecap="round" stroke-linejoin="round"/>
<path d="M21.0001 20.2501L18.9751 18.2251" stroke="#7A7A7A" stroke-width="1.5" stroke-miterlimit="10" stroke-linecap="round" stroke-linejoin="round"/>
<path d="M6.77993 2.9542L3.75708 5.97705L12.7726 14.9926L15.7955 11.9697L6.77993 2.9542Z" stroke="#7A7A7A" stroke-width="1.5" stroke-miterlimit="10" stroke-linecap="round" stroke-linejoin="round"/>
<path d="M13.125 9.375L15 7.5" stroke="#7A7A7A" stroke-width="1.5" stroke-miterlimit="10" stroke-linecap="round" stroke-linejoin="round"/>
<path d="M8.25 14.25L10.125 12.375" stroke="#7A7A7A" stroke-width="1.5" stroke-miterlimit="10" stroke-linecap="round" stroke-linejoin="round"/>
<path d="M5.31047 11.992L1.54517 15.7573L6.79538 21.0075L10.5607 17.2422L5.31047 11.992Z" stroke="#7A7A7A" stroke-width="1.5" stroke-miterlimit="10" stroke-linecap="round" stroke-linejoin="round"/>
<path d="M16.5605 0.742505L12.7952 4.50781L18.0454 9.75803L21.8107 5.99272L16.5605 0.742505Z" stroke="#7A7A7A" stroke-width="1.5" stroke-miterlimit="10" stroke-linecap="round" stroke-linejoin="round"/>
<path d="M3.75 14.25L8.25 18.75" stroke="#7A7A7A" stroke-width="1.5" stroke-miterlimit="10" stroke-linecap="round" stroke-linejoin="round"/>
<path d="M15 3L19.5 7.5" stroke="#7A7A7A" stroke-width="1.5" stroke-miterlimit="10" stroke-linecap="round" stroke-linejoin="round"/>
</g>
<defs>
<clipPath id="clip0_572_9850">
<rect width="24" height="24" fill="white"/>
</clipPath>
</defs>
</svg>
