<svg width="40" height="40" viewBox="0 0 40 40" fill="none" xmlns="http://www.w3.org/2000/svg">
<path d="M20.001 21.8C19.7843 21.8 19.5677 21.75 19.3677 21.6333L10.5344 16.5333C9.93436 16.1833 9.73432 15.4166 10.0843 14.8333C10.4343 14.2333 11.1843 14.0333 11.801 14.3833L20.001 19.1333L28.151 14.4166C28.751 14.0666 29.5177 14.2833 29.8677 14.8666C30.2177 15.4666 30.001 16.2333 29.4177 16.5666L20.651 21.6333C20.4344 21.7333 20.2177 21.8 20.001 21.8Z" fill="#5A5A5A"/>
<path d="M20 30.8666C19.3167 30.8666 18.75 30.2999 18.75 29.6166V20.5499C18.75 19.8666 19.3167 19.2999 20 19.2999C20.6833 19.2999 21.25 19.8666 21.25 20.5499V29.6166C21.25 30.2999 20.6833 30.8666 20 30.8666Z" fill="#5A5A5A"/>
<path d="M20.0004 31.25C19.0337 31.25 18.0838 31.0333 17.3171 30.6166L11.9837 27.6499C10.3837 26.7666 9.15039 24.65 9.15039 22.8166V17.1666C9.15039 15.35 10.4004 13.2166 11.9837 12.3333L17.3171 9.36663C18.8504 8.51663 21.1504 8.51663 22.6837 9.36663L28.0171 12.3333C29.6171 13.2166 30.8504 15.3333 30.8504 17.1666V22.8166C30.8504 24.6333 29.6004 26.7666 28.0171 27.6499L22.6837 30.6166C21.917 31.0333 20.9671 31.25 20.0004 31.25ZM20.0004 11.25C19.4504 11.25 18.9171 11.35 18.5337 11.5666L13.2004 14.5333C12.3838 14.9833 11.6504 16.25 11.6504 17.1666V22.8166C11.6504 23.75 12.3838 24.9999 13.2004 25.4499L18.5337 28.4166C19.3004 28.85 20.7004 28.85 21.4671 28.4166L26.8004 25.4499C27.6171 24.9999 28.3504 23.7333 28.3504 22.8166V17.1666C28.3504 16.2333 27.6171 14.9833 26.8004 14.5333L21.4671 11.5666C21.0837 11.35 20.5504 11.25 20.0004 11.25Z" fill="#5A5A5A"/>
<path d="M25.0016 37.9167C24.5516 37.9167 24.135 37.6667 23.9183 37.2834C23.7016 36.8834 23.7016 36.4167 23.9349 36.0167L25.685 33.1001C26.035 32.5167 26.8016 32.3167 27.4016 32.6667C28.0016 33.0167 28.185 33.7834 27.835 34.3834L27.3849 35.1334C31.9849 34.0501 35.435 29.9167 35.435 24.9834C35.435 24.3001 36.0016 23.7334 36.685 23.7334C37.3683 23.7334 37.935 24.3001 37.935 24.9834C37.9183 32.1167 32.1183 37.9167 25.0016 37.9167Z" fill="#5A5A5A"/>
<path d="M3.33203 16.2499C2.6487 16.2499 2.08203 15.6833 2.08203 14.9999C2.08203 7.88325 7.88203 2.08325 14.9987 2.08325C15.4487 2.08325 15.8654 2.33325 16.082 2.71658C16.2987 3.11658 16.2987 3.58325 16.0654 3.98325L14.3154 6.89992C13.9654 7.48325 13.1987 7.68325 12.5987 7.33325C11.9987 6.98325 11.8153 6.21659 12.1653 5.61659L12.6154 4.86658C8.01538 5.94992 4.56535 10.0833 4.56535 15.0166C4.58201 15.6833 4.01536 16.2499 3.33203 16.2499Z" fill="#5A5A5A"/>
</svg>
