<svg width="17" height="17" viewBox="0 0 17 17" fill="none" xmlns="http://www.w3.org/2000/svg">
<path d="M3.95354 15.6663C3.67354 15.6663 3.41354 15.5997 3.1802 15.4663C2.66687 15.1663 2.37354 14.5597 2.37354 13.8063V4.40634C2.37354 2.71301 3.75354 1.33301 5.44687 1.33301H11.8802C13.5735 1.33301 14.9535 2.71301 14.9535 4.40634V13.7997C14.9535 14.553 14.6602 15.1597 14.1469 15.4597C13.6335 15.7597 12.9602 15.7263 12.3002 15.3597L9.04687 13.553C8.85354 13.4463 8.47354 13.4463 8.2802 13.553L5.02687 15.3597C4.66687 15.5597 4.3002 15.6663 3.95354 15.6663ZM5.45354 2.33301C4.31354 2.33301 3.3802 3.26634 3.3802 4.40634V13.7997C3.3802 14.193 3.49354 14.4863 3.69354 14.5997C3.89354 14.713 4.20687 14.6797 4.54687 14.4863L7.8002 12.6797C8.29353 12.4063 9.0402 12.4063 9.53354 12.6797L12.7869 14.4863C13.1269 14.6797 13.4402 14.7197 13.6402 14.5997C13.8402 14.4797 13.9535 14.1863 13.9535 13.7997V4.40634C13.9535 3.26634 13.0202 2.33301 11.8802 2.33301H5.45354Z" fill="#7A7A7A"/>
<path d="M8.05937 9.33297C7.9327 9.33297 7.80604 9.2863 7.70604 9.1863L6.70604 8.1863C6.5127 7.99297 6.5127 7.67297 6.70604 7.47964C6.89937 7.2863 7.21937 7.2863 7.4127 7.47964L8.05937 8.1263L10.3727 5.81297C10.566 5.61964 10.886 5.61964 11.0794 5.81297C11.2727 6.0063 11.2727 6.3263 11.0794 6.51964L8.4127 9.1863C8.3127 9.2863 8.18604 9.33297 8.05937 9.33297Z" fill="#7A7A7A"/>
</svg>
