<svg width="40" height="40" viewBox="0 0 40 40" fill="none" xmlns="http://www.w3.org/2000/svg">
<path d="M34.166 25.4167C33.4827 25.4167 32.916 24.85 32.916 24.1667C32.916 23.4834 33.4827 22.9167 34.166 22.9167C35.1493 22.9167 35.366 22.7667 35.3827 22.7667C35.416 22.6667 35.416 22.0834 35.416 21.6667V18.3334C35.416 17.9167 35.416 17.35 35.3493 17.2C35.3327 17.2167 35.0827 17.0834 34.166 17.0834C33.4827 17.0834 32.916 16.5167 32.916 15.8334C32.916 15.15 33.4827 14.5834 34.166 14.5834C37.6327 14.5834 37.916 16.2834 37.916 18.3334V21.6667C37.916 23.7167 37.6327 25.4167 34.166 25.4167Z" fill="#5A5A5A"/>
<path d="M10.6333 24.5833C10.5333 24.5833 10.4333 24.5666 10.3333 24.55C9.66663 24.3833 9.24996 23.7 9.41663 23.0333C9.91663 21.05 9.91663 18.95 9.41663 16.9666C9.24996 16.3 9.64996 15.6166 10.3333 15.45C11 15.2833 11.6666 15.7 11.8333 16.3666C12.4333 18.75 12.4333 21.2666 11.8333 23.6333C11.7 24.2 11.1833 24.5833 10.6333 24.5833Z" fill="#5A5A5A"/>
<path d="M16.4673 24.5833C16.3673 24.5833 16.2673 24.5666 16.1673 24.55C15.5006 24.3833 15.0839 23.7 15.2506 23.0333C15.7506 21.05 15.7506 18.95 15.2506 16.9666C15.0839 16.3 15.4839 15.6166 16.1673 15.45C16.8339 15.2833 17.5173 15.6833 17.6839 16.3666C18.2839 18.75 18.2839 21.2666 17.6839 23.6333C17.5339 24.2 17.0173 24.5833 16.4673 24.5833Z" fill="#5A5A5A"/>
<path d="M22.2993 24.5833C22.1993 24.5833 22.0993 24.5666 21.9993 24.55C21.3326 24.3833 20.916 23.7 21.0826 23.0333C21.5826 21.05 21.5826 18.95 21.0826 16.9666C20.916 16.3 21.316 15.6166 21.9993 15.45C22.666 15.2833 23.3493 15.6833 23.516 16.3666C24.116 18.75 24.116 21.2666 23.516 23.6333C23.366 24.2 22.8493 24.5833 22.2993 24.5833Z" fill="#5A5A5A"/>
<path d="M21.6673 32.9167H11.6673C4.31732 32.9167 2.08398 30.6834 2.08398 23.3334V16.6667C2.08398 9.31671 4.31732 7.08337 11.6673 7.08337H21.6673C29.0173 7.08337 31.2507 9.31671 31.2507 16.6667V23.3334C31.2507 30.6834 29.0173 32.9167 21.6673 32.9167ZM11.6673 9.58337C5.71732 9.58337 4.58398 10.7167 4.58398 16.6667V23.3334C4.58398 29.2834 5.71732 30.4167 11.6673 30.4167H21.6673C27.6173 30.4167 28.7507 29.2834 28.7507 23.3334V16.6667C28.7507 10.7167 27.6173 9.58337 21.6673 9.58337H11.6673Z" fill="#5A5A5A"/>
</svg>
