<svg width="21" height="19" viewBox="0 0 21 19" fill="none" xmlns="http://www.w3.org/2000/svg">
<path d="M2.74088 8.53047V6.35568C2.74088 5.06489 3.86588 4.00879 5.24088 4.00879H8.57422C9.21589 4.00879 9.79922 4.24348 10.2409 4.61898C10.6826 4.24348 11.2659 4.00879 11.9076 4.00879H15.2409C16.6159 4.00879 17.7409 5.06489 17.7409 6.35568V8.53047C18.2492 8.96074 18.5742 9.57875 18.5742 10.2672V14.961H16.9076V13.3964H3.57422V14.961H1.90755V10.2672C1.90755 9.57875 2.23255 8.96074 2.74088 8.53047ZM8.57422 5.57339H5.24088C4.78255 5.57339 4.40755 5.92542 4.40755 6.35568V7.92028H9.40755V6.35568C9.40755 5.92542 9.03255 5.57339 8.57422 5.57339ZM16.0742 6.35568C16.0742 5.92542 15.6992 5.57339 15.2409 5.57339H11.9076C11.4492 5.57339 11.0742 5.92542 11.0742 6.35568V7.92028H16.0742V6.35568ZM16.9076 11.8318V10.2672C16.9076 9.83691 16.5326 9.48488 16.0742 9.48488H4.40755C3.94922 9.48488 3.57422 9.83691 3.57422 10.2672V11.8318H16.9076Z" fill="#7A7A7A"/>
</svg>
