<svg width="40" height="40" viewBox="0 0 40 40" fill="none" xmlns="http://www.w3.org/2000/svg">
<path d="M23.3334 15.0007C23.3334 15.8847 22.9822 16.7326 22.3571 17.3577C21.7319 17.9828 20.8841 18.334 20 18.334H10L3.33337 25.0007V6.66732C3.33337 5.78326 3.68456 4.93542 4.30968 4.31029C4.93481 3.68517 5.78265 3.33398 6.66671 3.33398H20C20.8841 3.33398 21.7319 3.68517 22.3571 4.31029C22.9822 4.93542 23.3334 5.78326 23.3334 6.66732V15.0007Z" stroke="#0890FE" stroke-width="3.33333" stroke-linecap="round" stroke-linejoin="round"/>
<path d="M30 15H33.3333C34.2173 15 35.0652 15.3512 35.6903 15.9763C36.3154 16.6014 36.6666 17.4493 36.6666 18.3333V36.6667L30 30H20C19.1159 30 18.2681 29.6488 17.6429 29.0237C17.0178 28.3986 16.6666 27.5507 16.6666 26.6667V25" stroke="#0890FE" stroke-width="3.33333" stroke-linecap="round" stroke-linejoin="round"/>
</svg>
