<svg width="17" height="16" viewBox="0 0 17 16" fill="none" xmlns="http://www.w3.org/2000/svg">
<path d="M15.661 14.9869H2.27305C1.99859 14.9869 1.771 14.763 1.771 14.4929C1.771 14.2228 1.99859 13.9988 2.27305 13.9988H15.661C15.9355 13.9988 16.1631 14.2228 16.1631 14.4929C16.1631 14.763 15.9355 14.9869 15.661 14.9869Z" fill="#7A7A7A"/>
<path d="M14.9917 14.9874H2.94248C2.66803 14.9874 2.44043 14.7635 2.44043 14.4934V3.95292C2.44043 1.96342 3.59849 0.82373 5.62008 0.82373H12.3141C14.3357 0.82373 15.4937 1.96342 15.4937 3.95292V14.4934C15.4937 14.7635 15.2661 14.9874 14.9917 14.9874ZM3.44453 13.9993H14.4896V3.95292C14.4896 2.49044 13.8001 1.8119 12.3141 1.8119H5.62008C4.13401 1.8119 3.44453 2.49044 3.44453 3.95292V13.9993Z" fill="#7A7A7A"/>
<path d="M7.62817 11.3639H5.61997C5.34552 11.3639 5.11792 11.1399 5.11792 10.8698C5.11792 10.5997 5.34552 10.3757 5.61997 10.3757H7.62817C7.90262 10.3757 8.13022 10.5997 8.13022 10.8698C8.13022 11.1399 7.90262 11.3639 7.62817 11.3639Z" fill="#7A7A7A"/>
<path d="M12.314 11.3639H10.3058C10.0313 11.3639 9.80371 11.1399 9.80371 10.8698C9.80371 10.5997 10.0313 10.3757 10.3058 10.3757H12.314C12.5884 10.3757 12.816 10.5997 12.816 10.8698C12.816 11.1399 12.5884 11.3639 12.314 11.3639Z" fill="#7A7A7A"/>
<path d="M7.62817 8.39942H5.61997C5.34552 8.39942 5.11792 8.17544 5.11792 7.90534C5.11792 7.63524 5.34552 7.41125 5.61997 7.41125H7.62817C7.90262 7.41125 8.13022 7.63524 8.13022 7.90534C8.13022 8.17544 7.90262 8.39942 7.62817 8.39942Z" fill="#7A7A7A"/>
<path d="M12.314 8.39942H10.3058C10.0313 8.39942 9.80371 8.17544 9.80371 7.90534C9.80371 7.63524 10.0313 7.41125 10.3058 7.41125H12.314C12.5884 7.41125 12.816 7.63524 12.816 7.90534C12.816 8.17544 12.5884 8.39942 12.314 8.39942Z" fill="#7A7A7A"/>
<path d="M7.62817 5.43494H5.61997C5.34552 5.43494 5.11792 5.21096 5.11792 4.94086C5.11792 4.67076 5.34552 4.44678 5.61997 4.44678H7.62817C7.90262 4.44678 8.13022 4.67076 8.13022 4.94086C8.13022 5.21096 7.90262 5.43494 7.62817 5.43494Z" fill="#7A7A7A"/>
<path d="M12.314 5.43494H10.3058C10.0313 5.43494 9.80371 5.21096 9.80371 4.94086C9.80371 4.67076 10.0313 4.44678 10.3058 4.44678H12.314C12.5884 4.44678 12.816 4.67076 12.816 4.94086C12.816 5.21096 12.5884 5.43494 12.314 5.43494Z" fill="#7A7A7A"/>
</svg>
