<svg width="16" height="16" viewBox="0 0 16 16" fill="none" xmlns="http://www.w3.org/2000/svg">
<path d="M5.33398 3.8335C5.06065 3.8335 4.83398 3.60683 4.83398 3.3335V1.3335C4.83398 1.06016 5.06065 0.833496 5.33398 0.833496C5.60732 0.833496 5.83398 1.06016 5.83398 1.3335V3.3335C5.83398 3.60683 5.60732 3.8335 5.33398 3.8335Z" fill="#7A7A7A"/>
<path d="M10.666 3.8335C10.3927 3.8335 10.166 3.60683 10.166 3.3335V1.3335C10.166 1.06016 10.3927 0.833496 10.666 0.833496C10.9393 0.833496 11.166 1.06016 11.166 1.3335V3.3335C11.166 3.60683 10.9393 3.8335 10.666 3.8335Z" fill="#7A7A7A"/>
<path d="M5.66667 9.66557C5.58 9.66557 5.49333 9.64558 5.41333 9.61225C5.32667 9.57891 5.26 9.53223 5.19333 9.47223C5.07333 9.34557 5 9.17891 5 8.99891C5 8.91224 5.02 8.82557 5.05333 8.74557C5.08667 8.66557 5.13333 8.59224 5.19333 8.52558C5.26 8.46558 5.32667 8.4189 5.41333 8.38556C5.65333 8.28556 5.95333 8.33891 6.14 8.52558C6.26 8.65224 6.33333 8.82557 6.33333 8.99891C6.33333 9.03891 6.32667 9.08558 6.32 9.13225C6.31333 9.17225 6.3 9.21224 6.28 9.25224C6.26667 9.29224 6.24667 9.33224 6.22 9.37224C6.2 9.40557 6.16667 9.4389 6.14 9.47223C6.01333 9.59223 5.84 9.66557 5.66667 9.66557Z" fill="#7A7A7A"/>
<path d="M8.00065 9.66609C7.91398 9.66609 7.82732 9.6461 7.74732 9.61277C7.66065 9.57944 7.59399 9.53275 7.52732 9.47275C7.40732 9.34609 7.33398 9.17943 7.33398 8.99943C7.33398 8.91276 7.35399 8.82609 7.38732 8.74609C7.42065 8.66609 7.46732 8.59277 7.52732 8.5261C7.59399 8.4661 7.66065 8.41942 7.74732 8.38608C7.98732 8.27942 8.28732 8.33943 8.47398 8.5261C8.59398 8.65277 8.66732 8.82609 8.66732 8.99943C8.66732 9.03943 8.66065 9.0861 8.65398 9.13277C8.64732 9.17277 8.63398 9.21276 8.61398 9.25276C8.60065 9.29276 8.58065 9.33276 8.55399 9.37276C8.53399 9.40609 8.50065 9.43942 8.47398 9.47275C8.34732 9.59275 8.17398 9.66609 8.00065 9.66609Z" fill="#7A7A7A"/>
<path d="M10.3327 9.66609C10.246 9.66609 10.1593 9.6461 10.0793 9.61277C9.99268 9.57944 9.92602 9.53275 9.85935 9.47275C9.83268 9.43942 9.80601 9.40609 9.77935 9.37276C9.75268 9.33276 9.73268 9.29276 9.71935 9.25276C9.69935 9.21276 9.68602 9.17277 9.67935 9.13277C9.67268 9.0861 9.66602 9.03943 9.66602 8.99943C9.66602 8.82609 9.73935 8.65277 9.85935 8.5261C9.92602 8.4661 9.99268 8.41942 10.0793 8.38608C10.326 8.27942 10.6193 8.33943 10.806 8.5261C10.926 8.65277 10.9993 8.82609 10.9993 8.99943C10.9993 9.03943 10.9927 9.0861 10.986 9.13277C10.9793 9.17277 10.966 9.21276 10.946 9.25276C10.9327 9.29276 10.9127 9.33276 10.886 9.37276C10.866 9.40609 10.8327 9.43942 10.806 9.47275C10.6793 9.59275 10.506 9.66609 10.3327 9.66609Z" fill="#7A7A7A"/>
<path d="M5.66667 11.9993C5.58 11.9993 5.49333 11.9793 5.41333 11.946C5.33333 11.9127 5.26 11.866 5.19333 11.806C5.07333 11.6793 5 11.506 5 11.3326C5 11.246 5.02 11.1593 5.05333 11.0793C5.08667 10.9926 5.13333 10.9193 5.19333 10.8593C5.44 10.6126 5.89333 10.6126 6.14 10.8593C6.26 10.986 6.33333 11.1593 6.33333 11.3326C6.33333 11.506 6.26 11.6793 6.14 11.806C6.01333 11.926 5.84 11.9993 5.66667 11.9993Z" fill="#7A7A7A"/>
<path d="M8.00065 11.9993C7.82732 11.9993 7.65399 11.926 7.52732 11.806C7.40732 11.6793 7.33398 11.506 7.33398 11.3326C7.33398 11.246 7.35399 11.1593 7.38732 11.0793C7.42065 10.9926 7.46732 10.9193 7.52732 10.8593C7.77399 10.6126 8.22732 10.6126 8.47398 10.8593C8.53398 10.9193 8.58065 10.9926 8.61398 11.0793C8.64732 11.1593 8.66732 11.246 8.66732 11.3326C8.66732 11.506 8.59398 11.6793 8.47398 11.806C8.34732 11.926 8.17398 11.9993 8.00065 11.9993Z" fill="#7A7A7A"/>
<path d="M10.3327 12.0004C10.1593 12.0004 9.98602 11.9271 9.85935 11.8071C9.79935 11.7471 9.75268 11.6738 9.71935 11.5871C9.68602 11.5071 9.66602 11.4204 9.66602 11.3338C9.66602 11.2471 9.68602 11.1604 9.71935 11.0804C9.75268 10.9938 9.79935 10.9204 9.85935 10.8604C10.0127 10.7071 10.246 10.6338 10.4593 10.6804C10.506 10.6871 10.546 10.7004 10.586 10.7204C10.626 10.7338 10.666 10.7538 10.706 10.7804C10.7393 10.8004 10.7727 10.8338 10.806 10.8604C10.926 10.9871 10.9993 11.1604 10.9993 11.3338C10.9993 11.5071 10.926 11.6804 10.806 11.8071C10.6793 11.9271 10.506 12.0004 10.3327 12.0004Z" fill="#7A7A7A"/>
<path d="M13.6673 6.56006H2.33398C2.06065 6.56006 1.83398 6.33339 1.83398 6.06006C1.83398 5.78673 2.06065 5.56006 2.33398 5.56006H13.6673C13.9407 5.56006 14.1673 5.78673 14.1673 6.06006C14.1673 6.33339 13.9407 6.56006 13.6673 6.56006Z" fill="#7A7A7A"/>
<path d="M10.6667 15.1668H5.33333C2.9 15.1668 1.5 13.7668 1.5 11.3335V5.66683C1.5 3.2335 2.9 1.8335 5.33333 1.8335H10.6667C13.1 1.8335 14.5 3.2335 14.5 5.66683V11.3335C14.5 13.7668 13.1 15.1668 10.6667 15.1668ZM5.33333 2.8335C3.42667 2.8335 2.5 3.76016 2.5 5.66683V11.3335C2.5 13.2402 3.42667 14.1668 5.33333 14.1668H10.6667C12.5733 14.1668 13.5 13.2402 13.5 11.3335V5.66683C13.5 3.76016 12.5733 2.8335 10.6667 2.8335H5.33333Z" fill="#7A7A7A"/>
</svg>
