<svg width="16" height="17" viewBox="0 0 16 17" fill="none" xmlns="http://www.w3.org/2000/svg">
<path d="M11.633 15.4018C10.8797 15.4018 10.0863 15.2222 9.26634 14.8765C8.46634 14.5374 7.65968 14.0719 6.87301 13.5068C6.09301 12.9349 5.33967 12.2966 4.62634 11.5985C3.91967 10.887 3.27967 10.1357 2.71301 9.36438C2.13967 8.56649 1.67967 7.7686 1.35301 6.9973C1.00634 6.17281 0.833008 5.37492 0.833008 4.62357C0.833008 4.10495 0.926341 3.61291 1.10634 3.15412C1.29301 2.68204 1.59301 2.2432 1.99967 1.8642C2.51301 1.35887 3.09967 1.1062 3.72634 1.1062C3.98634 1.1062 4.25301 1.16604 4.47967 1.27243C4.73967 1.39211 4.95967 1.57164 5.11967 1.81101L6.66634 3.98526C6.80634 4.17809 6.91301 4.36426 6.98634 4.55043C7.07301 4.74991 7.11967 4.94938 7.11967 5.1422C7.11967 5.39487 7.04634 5.64089 6.90634 5.87361C6.80634 6.05313 6.65301 6.24596 6.45967 6.43878L6.00634 6.91086C6.01301 6.93081 6.01967 6.94411 6.02634 6.95741C6.10634 7.09704 6.26634 7.33641 6.57301 7.69546C6.89967 8.06781 7.20634 8.40691 7.51301 8.71942C7.90634 9.10507 8.23301 9.41093 8.53967 9.66359C8.91967 9.98275 9.16634 10.1423 9.31301 10.2155L9.29967 10.2487L9.78634 9.76998C9.99301 9.56386 10.193 9.41093 10.3863 9.31119C10.753 9.08512 11.2197 9.04523 11.6863 9.23805C11.8597 9.31119 12.0463 9.41093 12.2463 9.55056L14.4597 11.1197C14.7063 11.286 14.8863 11.4987 14.993 11.7514C15.093 12.0041 15.1397 12.2368 15.1397 12.4695C15.1397 12.7887 15.0663 13.1078 14.9263 13.407C14.7863 13.7062 14.613 13.9656 14.393 14.2049C14.013 14.6238 13.5997 14.923 13.1197 15.1159C12.6597 15.302 12.1597 15.4018 11.633 15.4018ZM3.72634 2.10357C3.35967 2.10357 3.01967 2.26314 2.69301 2.5823C2.38634 2.86821 2.17301 3.18072 2.03967 3.51982C1.89967 3.86558 1.83301 4.23128 1.83301 4.62357C1.83301 5.24194 1.97967 5.9135 2.27301 6.60501C2.57301 7.30981 2.99301 8.04121 3.52634 8.77261C4.05967 9.50401 4.66634 10.2155 5.33301 10.887C5.99967 11.5453 6.71967 12.157 7.45967 12.6956C8.17967 13.2209 8.91967 13.6464 9.65301 13.9523C10.793 14.4376 11.8597 14.5507 12.7397 14.185C13.0797 14.0453 13.3797 13.8326 13.653 13.5267C13.8063 13.3605 13.9263 13.181 14.0263 12.9682C14.1063 12.802 14.1463 12.6291 14.1463 12.4562C14.1463 12.3498 14.1263 12.2434 14.073 12.1238C14.053 12.0839 14.013 12.0107 13.8863 11.9243L11.673 10.3551C11.5397 10.262 11.4197 10.1955 11.3063 10.149C11.1597 10.0891 11.0997 10.0293 10.873 10.1689C10.7397 10.2354 10.6197 10.3352 10.4863 10.4681L9.97968 10.9668C9.71968 11.2195 9.31968 11.2793 9.01301 11.1663L8.83301 11.0865C8.55967 10.9402 8.23967 10.7142 7.88634 10.4149C7.56634 10.1423 7.21967 9.82317 6.79967 9.41093C6.47301 9.07847 6.14634 8.72607 5.80634 8.33377C5.49301 7.96807 5.26634 7.65556 5.12634 7.39625L5.04634 7.19678C5.00634 7.04385 4.99301 6.95741 4.99301 6.86432C4.99301 6.62495 5.07967 6.41218 5.24634 6.24595L5.74634 5.72733C5.87967 5.59434 5.97967 5.46801 6.04634 5.35498C6.09967 5.26854 6.11967 5.1954 6.11967 5.12891C6.11967 5.07571 6.09967 4.99592 6.06634 4.91614C6.01967 4.80975 5.94634 4.69007 5.85301 4.56373L4.30634 2.38283C4.23967 2.28974 4.15967 2.22325 4.05967 2.17671C3.95301 2.13016 3.83967 2.10357 3.72634 2.10357ZM9.29967 10.2554L9.19301 10.7075L9.37301 10.2421C9.33967 10.2354 9.31301 10.2421 9.29967 10.2554Z" fill="#D52133"/>
</svg>
