<svg width="16" height="16" viewBox="0 0 16 16" fill="none" xmlns="http://www.w3.org/2000/svg">
<path d="M9.73935 4.00683C9.61935 4.1735 9.53268 4.32683 9.47268 4.4735C9.41268 4.6135 9.37935 4.7535 9.37935 4.88016C9.37935 5.04016 9.42602 5.20016 9.51935 5.3535C9.60602 5.50683 9.73268 5.66683 9.89268 5.82683L10.3993 6.3535C10.4727 6.42683 10.506 6.5135 10.506 6.62016C10.506 6.6735 10.4993 6.72016 10.486 6.7735C10.466 6.82683 10.446 6.86683 10.4327 6.90683C10.3127 7.12683 10.106 7.4135 9.81268 7.76016C9.51268 8.10683 9.19268 8.46016 8.84602 8.8135C8.48602 9.16683 8.13935 9.4935 7.78602 9.7935C7.43935 10.0868 7.15268 10.2868 6.92602 10.4068C6.89268 10.4202 6.85268 10.4402 6.80602 10.4602C6.75268 10.4802 6.69935 10.4868 6.63935 10.4868C6.52602 10.4868 6.43935 10.4468 6.36602 10.3735L5.85935 9.8735C5.69268 9.70683 5.53268 9.58016 5.37935 9.50016C5.22602 9.40683 5.07268 9.36016 4.90602 9.36016C4.77935 9.36016 4.64602 9.38683 4.49935 9.44683C4.35268 9.50683 4.19935 9.5935 4.03268 9.70683L1.82602 11.2735C1.65268 11.3935 1.53268 11.5335 1.45935 11.7002C1.39268 11.8668 1.35268 12.0335 1.35268 12.2202C1.35268 12.4602 1.40602 12.7068 1.51935 12.9468C1.63268 13.1868 1.77935 13.4135 1.97268 13.6268C2.29935 13.9868 2.65935 14.2468 3.06602 14.4135C3.46602 14.5802 3.89935 14.6668 4.36601 14.6668C5.04601 14.6668 5.77268 14.5068 6.53935 14.1802C7.30602 13.8535 8.07268 13.4135 8.83268 12.8602C9.59935 12.3002 10.326 11.6802 11.0193 10.9935C11.706 10.3002 12.326 9.5735 12.8793 8.8135C13.426 8.0535 13.866 7.2935 14.186 6.54016C14.506 5.78016 14.666 5.0535 14.666 4.36016C14.666 3.90683 14.586 3.4735 14.426 3.0735C14.266 2.66683 14.0127 2.2935 13.6593 1.96016C13.2327 1.54016 12.766 1.3335 12.2727 1.3335C12.086 1.3335 11.8993 1.3735 11.7327 1.4535C11.5593 1.5335 11.406 1.6535 11.286 1.82683" stroke="white" stroke-width="1.5" stroke-miterlimit="10" stroke-linecap="round" stroke-linejoin="round"/>
<path d="M3.66667 5.99984C3.66667 5.59984 3.98 4.9865 4.44667 4.4865C4.87333 4.0265 5.44 3.6665 6 3.6665" stroke="white" stroke-width="1.5" stroke-linecap="round" stroke-linejoin="round"/>
<path d="M4.66 1.52683C5.08667 1.40016 5.53333 1.3335 6 1.3335" stroke="white" stroke-width="1.5" stroke-linecap="round" stroke-linejoin="round"/>
<path d="M1.33365 6.00018C1.33365 4.42018 2.12031 3.02018 3.32031 2.18018" stroke="white" stroke-width="1.5" stroke-linecap="round" stroke-linejoin="round"/>
</svg>
