<svg viewBox="0 0 40 41" fill="none" xmlns="http://www.w3.org/2000/svg">
<path fill-rule="evenodd" clip-rule="evenodd" d="M11.0384 6.53203C11.9594 4.97539 13.6353 3.89856 15.5401 3.89856H24.4589C26.3638 3.89856 28.0397 4.97539 28.9607 6.53203C29.3667 7.21824 29.8496 7.97849 30.3493 8.64721C30.5161 8.87046 30.8303 9.04142 31.2524 9.04142H32.3809C35.537 9.04142 38.0948 11.6 38.0948 14.7557V29.3748C38.0948 32.5307 35.5364 35.089 32.3805 35.089H7.61859C4.46267 35.089 1.9043 32.5307 1.9043 29.3748V14.7557C1.9043 11.6 4.46209 9.04142 7.61818 9.04142H8.74669C9.16873 9.04142 9.48299 8.87046 9.64979 8.64722C10.1495 7.97849 10.6324 7.21824 11.0384 6.53203ZM15.5401 6.7557C14.7395 6.7557 13.954 7.21504 13.4974 7.98689C13.0628 8.72145 12.522 9.57653 11.9386 10.3574C11.1495 11.4135 9.92167 11.8986 8.74669 11.8986H7.61818C6.0404 11.8986 4.76144 13.1776 4.76144 14.7557V29.3748C4.76144 30.9527 6.04063 32.2319 7.61859 32.2319H32.3805C33.9584 32.2319 35.2376 30.9527 35.2376 29.3748V14.7557C35.2376 13.1776 33.9587 11.8986 32.3809 11.8986H31.2524C30.0774 11.8986 28.8496 11.4135 28.0605 10.3574C27.477 9.57653 26.9363 8.72145 26.5017 7.98689C26.045 7.21504 25.2596 6.7557 24.4589 6.7557H15.5401ZM19.9995 15.089C17.1066 15.089 14.7614 17.4342 14.7614 20.3271C14.7614 23.2201 17.1066 25.5652 19.9995 25.5652C22.8925 25.5652 25.2376 23.2201 25.2376 20.3271C25.2376 17.4342 22.8925 15.089 19.9995 15.089ZM11.9043 20.3271C11.9043 15.8563 15.5287 12.2319 19.9995 12.2319C24.4704 12.2319 28.0948 15.8563 28.0948 20.3271C28.0948 24.798 24.4704 28.4224 19.9995 28.4224C15.5287 28.4224 11.9043 24.798 11.9043 20.3271Z" fill="#5A5A5A"/>
</svg>
