<svg width="18" height="18" viewBox="0 0 18 18" fill="none" xmlns="http://www.w3.org/2000/svg">
<path d="M12.7359 17.0672H5.18913C3.17281 17.0672 1.89101 15.8732 1.7758 13.8786L1.40134 7.98047C1.34373 7.08681 1.65338 6.22891 2.27267 5.57833C2.88477 4.92774 3.7489 4.55598 4.64184 4.55598C4.87228 4.55598 5.09551 4.42015 5.20353 4.20567L5.72201 3.18333C6.14688 2.34687 7.21264 1.69629 8.14159 1.69629H9.79065C10.7196 1.69629 11.7782 2.34687 12.203 3.17618L12.7215 4.21997C12.8295 4.42015 13.0456 4.55598 13.2832 4.55598C14.1761 4.55598 15.0403 4.92774 15.6524 5.57833C16.2717 6.23605 16.5813 7.08681 16.5237 7.98047L16.1492 13.8857C16.0196 15.909 14.7738 17.0672 12.7359 17.0672ZM8.14159 2.76867C7.60871 2.76867 6.9318 3.18333 6.68696 3.66233L6.16848 4.69182C5.86603 5.27091 5.28274 5.62837 4.64184 5.62837C4.03695 5.62837 3.47526 5.87144 3.0576 6.30755C2.64713 6.74365 2.4383 7.31559 2.48151 7.90898L2.85596 13.8142C2.94238 15.2584 3.7273 15.9948 5.18913 15.9948H12.7359C14.1905 15.9948 14.9755 15.2584 15.0691 13.8142L15.4435 7.90898C15.4795 7.31559 15.2779 6.74365 14.8674 6.30755C14.4498 5.87144 13.8881 5.62837 13.2832 5.62837C12.6423 5.62837 12.059 5.27091 11.7566 4.70612L11.2309 3.66233C10.9932 3.19048 10.3163 2.77582 9.78344 2.77582H8.14159V2.76867Z" fill="#9D9D9D"/>
<path d="M10.0422 7.05823H7.88188C7.58664 7.05823 7.3418 6.81515 7.3418 6.52203C7.3418 6.22891 7.58664 5.98584 7.88188 5.98584H10.0422C10.3375 5.98584 10.5823 6.22891 10.5823 6.52203C10.5823 6.81515 10.3375 7.05823 10.0422 7.05823Z" fill="#9D9D9D"/>
<path d="M8.96248 14.2077C7.37103 14.2077 6.08203 12.928 6.08203 11.348C6.08203 9.76799 7.37103 8.48828 8.96248 8.48828C10.5539 8.48828 11.8429 9.76799 11.8429 11.348C11.8429 12.928 10.5539 14.2077 8.96248 14.2077ZM8.96248 9.56067C7.96873 9.56067 7.1622 10.3614 7.1622 11.348C7.1622 12.3346 7.96873 13.1353 8.96248 13.1353C9.95624 13.1353 10.7628 12.3346 10.7628 11.348C10.7628 10.3614 9.95624 9.56067 8.96248 9.56067Z" fill="#9D9D9D"/>
</svg>
