<svg width="42" height="42" viewBox="0 0 42 42" fill="none" xmlns="http://www.w3.org/2000/svg">
<path d="M38.5 38.5H3.5C2.7825 38.5 2.1875 37.905 2.1875 37.1875C2.1875 36.47 2.7825 35.875 3.5 35.875H38.5C39.2175 35.875 39.8125 36.47 39.8125 37.1875C39.8125 37.905 39.2175 38.5 38.5 38.5Z" fill="white"/>
<path d="M17.0625 7V38.5H24.9375V7C24.9375 5.075 24.15 3.5 21.7875 3.5H20.2125C17.85 3.5 17.0625 5.075 17.0625 7Z" fill="white"/>
<path d="M5.25 17.5V38.5H12.25V17.5C12.25 15.575 11.55 14 9.45 14H8.05C5.95 14 5.25 15.575 5.25 17.5Z" fill="white"/>
<path d="M29.75 26.25V38.5H36.75V26.25C36.75 24.325 36.05 22.75 33.95 22.75H32.55C30.45 22.75 29.75 24.325 29.75 26.25Z" fill="white"/>
</svg>
