<svg width="14" height="14" viewBox="0 0 14 14" fill="none" xmlns="http://www.w3.org/2000/svg">
<path fill-rule="evenodd" clip-rule="evenodd" d="M9.03838 4.04543C9.2204 4.20434 9.23914 4.48071 9.08023 4.66273L4.4969 9.91273C4.41382 10.0079 4.29365 10.0625 4.16732 10.0625C4.04099 10.0625 3.92083 10.0079 3.83775 9.91273L2.00441 7.81273C1.84551 7.63071 1.86425 7.35434 2.04627 7.19543C2.22829 7.03652 2.50466 7.05526 2.66357 7.23728L4.16732 8.95977L8.42108 4.08728C8.57999 3.90526 8.85636 3.88652 9.03838 4.04543Z" fill="#E9EAEB"/>
<path fill-rule="evenodd" clip-rule="evenodd" d="M11.9692 4.09469C12.1441 4.26133 12.1509 4.53825 11.9842 4.71322L6.9841 9.96322C6.89573 10.056 6.77113 10.1054 6.64319 10.0983C6.51525 10.0913 6.39684 10.0285 6.31921 9.92654L6.06936 9.59841C5.92298 9.40618 5.96015 9.13167 6.15239 8.98529C6.31754 8.85954 6.5434 8.86925 6.69658 8.99637L11.3506 4.10976C11.5173 3.9348 11.7942 3.92805 11.9692 4.09469Z" fill="#E9EAEB"/>
</svg>
