<svg width="40" height="40" viewBox="0 0 40 40" fill="none" xmlns="http://www.w3.org/2000/svg">
<path d="M20 36.6673C29.2048 36.6673 36.6667 29.2054 36.6667 20.0007C36.6667 10.7959 29.2048 3.33398 20 3.33398C10.7953 3.33398 3.33337 10.7959 3.33337 20.0007C3.33337 29.2054 10.7953 36.6673 20 36.6673Z" stroke="#52D5BA" stroke-width="3.33333" stroke-linecap="round" stroke-linejoin="round"/>
<path d="M20 30C25.5228 30 30 25.5228 30 20C30 14.4772 25.5228 10 20 10C14.4772 10 10 14.4772 10 20C10 25.5228 14.4772 30 20 30Z" stroke="#52D5BA" stroke-width="3.33333" stroke-linecap="round" stroke-linejoin="round"/>
<path d="M20 23.3327C21.8409 23.3327 23.3333 21.8403 23.3333 19.9993C23.3333 18.1584 21.8409 16.666 20 16.666C18.159 16.666 16.6666 18.1584 16.6666 19.9993C16.6666 21.8403 18.159 23.3327 20 23.3327Z" stroke="#52D5BA" stroke-width="3.33333" stroke-linecap="round" stroke-linejoin="round"/>
</svg>
