<svg width="42" height="42" viewBox="0 0 42 42" fill="none" xmlns="http://www.w3.org/2000/svg">
<path d="M25.1126 3.5H16.8876C15.0676 3.5 13.5801 4.97 13.5801 6.79V8.435C13.5801 10.255 15.0501 11.725 16.8701 11.725H25.1126C26.9326 11.725 28.4026 10.255 28.4026 8.435V6.79C28.4201 4.97 26.9326 3.5 25.1126 3.5Z" fill="white"/>
<path d="M30.1698 8.43509C30.1698 11.2176 27.8948 13.4926 25.1123 13.4926H16.8873C14.1048 13.4926 11.8298 11.2176 11.8298 8.43509C11.8298 7.45509 10.7798 6.84259 9.90482 7.29759C7.43732 8.61009 5.75732 11.2176 5.75732 14.2101V30.6776C5.75732 34.9826 9.27482 38.5001 13.5798 38.5001H28.4198C32.7248 38.5001 36.2423 34.9826 36.2423 30.6776V14.2101C36.2423 11.2176 34.5623 8.61009 32.0948 7.29759C31.2198 6.84259 30.1698 7.45509 30.1698 8.43509ZM26.8448 22.2776L19.8448 29.2776C19.5823 29.5401 19.2498 29.6626 18.9173 29.6626C18.5848 29.6626 18.2523 29.5401 17.9898 29.2776L15.3648 26.6526C14.8573 26.1451 14.8573 25.3051 15.3648 24.7976C15.8723 24.2901 16.7123 24.2901 17.2198 24.7976L18.9173 26.4951L24.9898 20.4226C25.4973 19.9151 26.3373 19.9151 26.8448 20.4226C27.3523 20.9301 27.3523 21.7701 26.8448 22.2776Z" fill="white"/>
</svg>
