<svg width="17" height="16" viewBox="0 0 17 16" fill="none" xmlns="http://www.w3.org/2000/svg">
<path d="M8.66715 15.1663C4.71382 15.1663 1.50049 11.953 1.50049 7.99967C1.50049 4.04634 4.71382 0.833008 8.66715 0.833008C12.6205 0.833008 15.8338 4.04634 15.8338 7.99967C15.8338 11.953 12.6205 15.1663 8.66715 15.1663ZM8.66715 1.83301C5.26715 1.83301 2.50049 4.59967 2.50049 7.99967C2.50049 11.3997 5.26715 14.1663 8.66715 14.1663C12.0672 14.1663 14.8338 11.3997 14.8338 7.99967C14.8338 4.59967 12.0672 1.83301 8.66715 1.83301Z" fill="#7A7A7A"/>
<path d="M11.1396 10.6202C11.0529 10.6202 10.9663 10.6002 10.8863 10.5468L8.8196 9.3135C8.30627 9.00684 7.92627 8.3335 7.92627 7.74017V5.00684C7.92627 4.7335 8.15294 4.50684 8.42627 4.50684C8.6996 4.50684 8.92627 4.7335 8.92627 5.00684V7.74017C8.92627 7.98017 9.12627 8.3335 9.33294 8.4535L11.3996 9.68684C11.6396 9.82684 11.7129 10.1335 11.5729 10.3735C11.4729 10.5335 11.3063 10.6202 11.1396 10.6202Z" fill="#7A7A7A"/>
</svg>
