<svg width="40" height="40" viewBox="0 0 40 40" fill="none" xmlns="http://www.w3.org/2000/svg">
<path d="M25 30H16.6666" stroke="#5655B9" stroke-width="3.33333" stroke-linecap="round" stroke-linejoin="round"/>
<path d="M30 23.334H16.6666" stroke="#5655B9" stroke-width="3.33333" stroke-linecap="round" stroke-linejoin="round"/>
<path d="M6.66671 36.6673H33.3334C34.2174 36.6673 35.0653 36.3161 35.6904 35.691C36.3155 35.0659 36.6667 34.218 36.6667 33.334V6.66732C36.6667 5.78326 36.3155 4.93542 35.6904 4.31029C35.0653 3.68517 34.2174 3.33398 33.3334 3.33398H13.3334C12.4493 3.33398 11.6015 3.68517 10.9764 4.31029C10.3512 4.93542 10 5.78326 10 6.66732V33.334C10 34.218 9.64885 35.0659 9.02373 35.691C8.39861 36.3161 7.55076 36.6673 6.66671 36.6673ZM6.66671 36.6673C5.78265 36.6673 4.93481 36.3161 4.30968 35.691C3.68456 35.0659 3.33337 34.218 3.33337 33.334V18.334C3.33337 17.4499 3.68456 16.6021 4.30968 15.977C4.93481 15.3518 5.78265 15.0007 6.66671 15.0007H10" stroke="#5655B9" stroke-width="3.33333" stroke-linecap="round" stroke-linejoin="round"/>
<path d="M28.3333 10H18.3333C17.4128 10 16.6666 10.7462 16.6666 11.6667V15C16.6666 15.9205 17.4128 16.6667 18.3333 16.6667H28.3333C29.2538 16.6667 30 15.9205 30 15V11.6667C30 10.7462 29.2538 10 28.3333 10Z" stroke="#5655B9" stroke-width="3.33333" stroke-linecap="round" stroke-linejoin="round"/>
</svg>
