<svg width="10" height="11" viewBox="0 0 10 11" fill="none" xmlns="http://www.w3.org/2000/svg">
<mask id="path-1-inside-1_904_16105" fill="white">
<path d="M10 5.6831C10 6.92864 9.52546 8.12837 8.67108 9.04287C7.8167 9.95736 6.64532 10.5194 5.39073 10.6167C4.13613 10.714 2.89059 10.3395 1.90268 9.56797C0.914767 8.7964 0.257149 7.6845 0.0610671 6.45417C-0.135015 5.22385 0.144861 3.96558 0.844838 2.9305C1.54482 1.89542 2.61341 1.15964 3.83736 0.87002C5.06131 0.580398 6.3506 0.758229 7.44791 1.36802C8.54522 1.97782 9.36985 2.97472 9.75722 4.15978L8.56792 4.54061C8.27739 3.65182 7.65891 2.90414 6.83593 2.44679C6.01295 1.98945 5.04598 1.85607 4.12802 2.07329C3.21006 2.29051 2.40861 2.84234 1.88363 3.61865C1.35865 4.39496 1.14874 5.33866 1.2958 6.26141C1.44286 7.18415 1.93608 8.01808 2.67701 8.59675C3.41794 9.17543 4.3521 9.45629 5.29305 9.38329C6.23399 9.31029 7.11252 8.8888 7.75331 8.20293C8.39409 7.51706 8.75 6.61725 8.75 5.6831H10Z"/>
</mask>
<path d="M10 5.6831C10 6.92864 9.52546 8.12837 8.67108 9.04287C7.8167 9.95736 6.64532 10.5194 5.39073 10.6167C4.13613 10.714 2.89059 10.3395 1.90268 9.56797C0.914767 8.7964 0.257149 7.6845 0.0610671 6.45417C-0.135015 5.22385 0.144861 3.96558 0.844838 2.9305C1.54482 1.89542 2.61341 1.15964 3.83736 0.87002C5.06131 0.580398 6.3506 0.758229 7.44791 1.36802C8.54522 1.97782 9.36985 2.97472 9.75722 4.15978L8.56792 4.54061C8.27739 3.65182 7.65891 2.90414 6.83593 2.44679C6.01295 1.98945 5.04598 1.85607 4.12802 2.07329C3.21006 2.29051 2.40861 2.84234 1.88363 3.61865C1.35865 4.39496 1.14874 5.33866 1.2958 6.26141C1.44286 7.18415 1.93608 8.01808 2.67701 8.59675C3.41794 9.17543 4.3521 9.45629 5.29305 9.38329C6.23399 9.31029 7.11252 8.8888 7.75331 8.20293C8.39409 7.51706 8.75 6.61725 8.75 5.6831H10Z" stroke="url(#paint0_angular_904_16105)" stroke-width="32" mask="url(#path-1-inside-1_904_16105)"/>
<defs>
<radialGradient id="paint0_angular_904_16105" cx="0" cy="0" r="1" gradientUnits="userSpaceOnUse" gradientTransform="translate(5 5.6831) rotate(-37.5891) scale(4.73243 4.48419)">
<stop stop-color="#D52133"/>
<stop offset="0.0001" stop-color="#CB1B1B" stop-opacity="0"/>
<stop offset="0.45" stop-color="white"/>
<stop offset="0.975" stop-color="#E48787" stop-opacity="0.474292"/>
<stop offset="1" stop-color="#DC6464" stop-opacity="0.321667"/>
</radialGradient>
</defs>
</svg>
