<svg width="17" height="17" viewBox="0 0 17 17" fill="none" xmlns="http://www.w3.org/2000/svg">
<path d="M8.49995 11.3866C6.90661 11.3866 5.61328 10.0933 5.61328 8.49995C5.61328 6.90661 6.90661 5.61328 8.49995 5.61328C10.0933 5.61328 11.3866 6.90661 11.3866 8.49995C11.3866 10.0933 10.0933 11.3866 8.49995 11.3866ZM8.49995 6.61328C7.45995 6.61328 6.61328 7.45995 6.61328 8.49995C6.61328 9.53995 7.45995 10.3866 8.49995 10.3866C9.53995 10.3866 10.3866 9.53995 10.3866 8.49995C10.3866 7.45995 9.53995 6.61328 8.49995 6.61328Z" fill="#7A7A7A"/>
<path d="M8.5007 14.513C5.99404 14.513 3.62737 13.0463 2.0007 10.4997C1.29404 9.39966 1.29404 7.60633 2.0007 6.49966C3.63404 3.95299 6.0007 2.48633 8.5007 2.48633C11.0007 2.48633 13.3674 3.95299 14.994 6.49966C15.7007 7.59966 15.7007 9.393 14.994 10.4997C13.3674 13.0463 11.0007 14.513 8.5007 14.513ZM8.5007 3.48633C6.34737 3.48633 4.28737 4.77966 2.84737 7.03966C2.34737 7.81966 2.34737 9.17966 2.84737 9.95966C4.28737 12.2197 6.34737 13.513 8.5007 13.513C10.654 13.513 12.714 12.2197 14.154 9.95966C14.654 9.17966 14.654 7.81966 14.154 7.03966C12.714 4.77966 10.654 3.48633 8.5007 3.48633Z" fill="#7A7A7A"/>
</svg>
