<svg viewBox="0 0 17 17" fill="none" xmlns="http://www.w3.org/2000/svg">
<path fill-rule="evenodd" clip-rule="evenodd" d="M12.4057 2.52441C12.1935 2.52441 11.99 2.6087 11.84 2.75873C11.6899 2.90876 11.6057 3.11224 11.6057 3.32441V4.12441H10.8057C10.5935 4.12441 10.39 4.2087 10.24 4.35873C10.0899 4.50876 10.0057 4.71224 10.0057 4.92441C10.0057 5.13659 10.0899 5.34007 10.24 5.4901C10.39 5.64013 10.5935 5.72441 10.8057 5.72441H11.6057V6.52441C11.6057 6.73659 11.6899 6.94007 11.84 7.0901C11.99 7.24013 12.1935 7.32441 12.4057 7.32441C12.6178 7.32441 12.8213 7.24013 12.9713 7.0901C13.1214 6.94007 13.2057 6.73659 13.2057 6.52441V5.72441H14.0057C14.2178 5.72441 14.4213 5.64013 14.5713 5.4901C14.7214 5.34007 14.8057 5.13659 14.8057 4.92441C14.8057 4.71224 14.7214 4.50876 14.5713 4.35873C14.4213 4.2087 14.2178 4.12441 14.0057 4.12441H13.2057V3.32441C13.2057 3.11224 13.1214 2.90876 12.9713 2.75873C12.8213 2.6087 12.6178 2.52441 12.4057 2.52441ZM12.4057 10.5244C12.1935 10.5244 11.99 10.6087 11.84 10.7587C11.6899 10.9088 11.6057 11.1122 11.6057 11.3244V12.1244H10.8057C10.5935 12.1244 10.39 12.2087 10.24 12.3587C10.0899 12.5088 10.0057 12.7122 10.0057 12.9244C10.0057 13.1366 10.0899 13.3401 10.24 13.4901C10.39 13.6401 10.5935 13.7244 10.8057 13.7244H11.6057V14.5244C11.6057 14.7366 11.6899 14.9401 11.84 15.0901C11.99 15.2401 12.1935 15.3244 12.4057 15.3244C12.6178 15.3244 12.8213 15.2401 12.9713 15.0901C13.1214 14.9401 13.2057 14.7366 13.2057 14.5244V13.7244H14.0057C14.2178 13.7244 14.4213 13.6401 14.5713 13.4901C14.7214 13.3401 14.8057 13.1366 14.8057 12.9244C14.8057 12.7122 14.7214 12.5088 14.5713 12.3587C14.4213 12.2087 14.2178 12.1244 14.0057 12.1244H13.2057V11.3244C13.2057 11.1122 13.1214 10.9088 12.9713 10.7587C12.8213 10.6087 12.6178 10.5244 12.4057 10.5244ZM6.80566 2.52441C6.62911 2.52436 6.4575 2.5827 6.31757 2.69036C6.17765 2.79802 6.07726 2.94895 6.03206 3.11961L5.08886 6.68441L2.40566 8.23161C2.28406 8.30183 2.18308 8.40282 2.11287 8.52443C2.04266 8.64604 2.0057 8.78399 2.0057 8.92441C2.0057 9.06484 2.04266 9.20279 2.11287 9.3244C2.18308 9.44601 2.28406 9.547 2.40566 9.61721L5.08886 11.1652L6.03286 14.7292C6.07814 14.8997 6.17851 15.0505 6.31835 15.158C6.45819 15.2656 6.62965 15.3239 6.80606 15.3239C6.98248 15.3239 7.15394 15.2656 7.29378 15.158C7.43362 15.0505 7.53398 14.8997 7.57926 14.7292L8.52246 11.1644L11.2057 9.61721C11.3273 9.547 11.4283 9.44601 11.4985 9.3244C11.5687 9.20279 11.6056 9.06484 11.6056 8.92441C11.6056 8.78399 11.5687 8.64604 11.4985 8.52443C11.4283 8.40282 11.3273 8.30183 11.2057 8.23161L8.52246 6.68361L7.57846 3.11961C7.5333 2.94908 7.43304 2.79825 7.29327 2.69061C7.15351 2.58296 6.98208 2.52453 6.80566 2.52441Z" fill="white"/>
</svg>
