<svg width="24" height="24" viewBox="0 0 24 24" fill="none" xmlns="http://www.w3.org/2000/svg">
<path fill-rule="evenodd" clip-rule="evenodd" d="M11.9994 8.00002C9.79024 8.00002 7.99938 9.79088 7.99938 12C7.99938 14.2092 9.79024 16 11.9994 16C14.2085 16 15.9994 14.2092 15.9994 12C15.9994 9.79088 14.2085 8.00002 11.9994 8.00002ZM9.99938 12C9.99938 10.8955 10.8948 10 11.9994 10C13.104 10 13.9994 10.8955 13.9994 12C13.9994 13.1046 13.104 14 11.9994 14C10.8948 14 9.99938 13.1046 9.99938 12Z" fill="#7A7A7A"/>
<path fill-rule="evenodd" clip-rule="evenodd" d="M11.9994 8.00002C9.79024 8.00002 7.99938 9.79088 7.99938 12C7.99938 14.2092 9.79024 16 11.9994 16C14.2085 16 15.9994 14.2092 15.9994 12C15.9994 9.79088 14.2085 8.00002 11.9994 8.00002ZM9.99938 12C9.99938 10.8955 10.8948 10 11.9994 10C13.104 10 13.9994 10.8955 13.9994 12C13.9994 13.1046 13.104 14 11.9994 14C10.8948 14 9.99938 13.1046 9.99938 12Z" fill="#7A7A7A"/>
<path fill-rule="evenodd" clip-rule="evenodd" d="M10.7667 1.01709C10.9919 0.999829 11.2447 0.99993 11.4509 1.00001L12.5478 1.00001C12.754 0.99993 13.0068 0.999829 13.2321 1.01709C13.4982 1.03749 13.8672 1.08936 14.2628 1.26937C14.7629 1.49689 15.1909 1.85736 15.5001 2.31147C15.7448 2.67075 15.8586 3.0255 15.924 3.2843C15.9793 3.50334 16.0221 3.75249 16.0571 3.9557L16.1987 4.77635L16.2015 4.77788C16.2363 4.79712 16.2709 4.81659 16.3054 4.8363L16.308 4.83774L17.2449 4.49865C17.4349 4.42978 17.6687 4.34509 17.8829 4.28543C18.1365 4.2148 18.4948 4.13889 18.921 4.17026C19.4608 4.20998 19.9797 4.39497 20.4229 4.70563C20.7728 4.95095 21.0023 5.23636 21.154 5.4515C21.2823 5.63326 21.4097 5.84671 21.5134 6.02029L22.0152 6.86003C22.1249 7.04345 22.2587 7.26713 22.3621 7.47527C22.4837 7.7203 22.6322 8.07474 22.6771 8.52067C22.7335 9.08222 22.6305 9.64831 22.3797 10.1539C22.1805 10.5554 21.9165 10.8347 21.7163 11.0212C21.5463 11.1795 21.3422 11.3417 21.1749 11.4746L20.4994 12L21.1749 12.5254C21.3422 12.6584 21.5463 12.8205 21.7163 12.9789C21.9165 13.1653 22.1805 13.4446 22.3796 13.8461C22.6304 14.3517 22.7335 14.9178 22.677 15.4794C22.6322 15.9253 22.4836 16.2797 22.362 16.5248C22.2587 16.7329 22.1249 16.9566 22.0152 17.14L21.5132 17.9799C21.4096 18.1535 21.2822 18.3668 21.154 18.5485C21.0022 18.7637 20.7728 19.0491 20.4228 19.2944C19.9797 19.6051 19.4607 19.7901 18.921 19.8298C18.4948 19.8612 18.1365 19.7852 17.8829 19.7146C17.6686 19.6549 17.4349 19.5703 17.2448 19.5014L16.3079 19.1623L16.3054 19.1638C16.2709 19.1835 16.2363 19.2029 16.2015 19.2222L16.1987 19.2237L16.0571 20.0443C16.0221 20.2475 15.9793 20.4967 15.924 20.7157C15.8586 20.9745 15.7448 21.3293 15.5001 21.6886C15.1909 22.1427 14.7629 22.5032 14.2628 22.7307C13.8672 22.9107 13.4982 22.9626 13.2321 22.983C13.0068 23.0002 12.754 23.0001 12.5478 23H11.451C11.2448 23.0001 10.9919 23.0002 10.7667 22.983C10.5005 22.9626 10.1316 22.9107 9.73594 22.7307C9.23587 22.5032 8.80788 22.1427 8.49865 21.6886C8.254 21.3293 8.14016 20.9745 8.07481 20.7157C8.0195 20.4967 7.97662 20.2475 7.94164 20.0443L7.80007 19.2237L7.7973 19.2222C7.76249 19.2029 7.72784 19.1835 7.69335 19.1637L7.69081 19.1623L6.75397 19.5014C6.56389 19.5702 6.33017 19.6549 6.1159 19.7146C5.86227 19.7852 5.50402 19.8611 5.0778 19.8298C4.53805 19.7901 4.0191 19.6051 3.57593 19.2944C3.22599 19.0491 2.99653 18.7637 2.84477 18.5485C2.71657 18.3668 2.58913 18.1534 2.48549 17.9798L1.98357 17.14C1.87386 16.9566 1.74006 16.7329 1.63676 16.5248C1.51514 16.2797 1.36658 15.9253 1.32174 15.4794C1.26527 14.9178 1.36836 14.3517 1.61915 13.8461C1.81831 13.4446 2.08228 13.1653 2.28247 12.9789C2.45251 12.8205 2.65656 12.6584 2.82388 12.5254L3.47783 12.0054V11.9947L2.82384 11.4746C2.65651 11.3417 2.45247 11.1795 2.28243 11.0212C2.08224 10.8347 1.81827 10.5554 1.61911 10.1539C1.36832 9.64832 1.26523 9.08224 1.32169 8.52069C1.36653 8.07476 1.5151 7.72032 1.63671 7.47528C1.74001 7.26715 1.87382 7.04347 1.98353 6.86005L2.48544 6.02026C2.58908 5.84669 2.71653 5.63326 2.84473 5.45151C2.99649 5.23637 3.22594 4.95096 3.57589 4.70565C4.01905 4.39498 4.53801 4.20999 5.07776 4.17027C5.50397 4.1389 5.86223 4.21481 6.11585 4.28544C6.33011 4.34511 6.56383 4.4298 6.7539 4.49867L7.6908 4.83775L7.69333 4.8363C7.72783 4.8166 7.76249 4.79712 7.7973 4.77788L7.80007 4.77635L7.94164 3.95571C7.97662 3.7525 8.0195 3.50334 8.07481 3.2843C8.14016 3.0255 8.254 2.67075 8.49865 2.31147C8.80788 1.85736 9.23587 1.49689 9.73594 1.26937C10.1316 1.08936 10.5005 1.03749 10.7667 1.01709ZM14.0932 4.3363C14.0104 3.85634 13.969 3.61637 13.847 3.43717C13.7439 3.2858 13.6013 3.16564 13.4346 3.0898C13.2372 3.00002 12.9937 3.00002 12.5067 3.00002H11.4921C11.0051 3.00002 10.7615 3.00002 10.5642 3.0898C10.3975 3.16564 10.2548 3.2858 10.1518 3.43717C10.0297 3.61637 9.98834 3.85634 9.90554 4.3363L9.74951 5.24064C9.69384 5.56333 9.66601 5.72467 9.60704 5.84869C9.54914 5.97047 9.5018 6.03703 9.40575 6.13166C9.30792 6.22804 9.12692 6.3281 8.76493 6.52822C8.73823 6.54298 8.71166 6.55791 8.68521 6.57302C8.33895 6.77078 8.16582 6.86966 8.03724 6.90314C7.91097 6.93602 7.83232 6.94279 7.70228 6.93196C7.56988 6.92094 7.42155 6.86726 7.1249 6.7599L6.11133 6.39308C5.6621 6.2305 5.43748 6.14921 5.22454 6.16488C5.04463 6.17811 4.87164 6.23978 4.72392 6.34333C4.54909 6.46589 4.42654 6.67094 4.18145 7.08103L3.72208 7.84965C3.46333 8.2826 3.33395 8.49907 3.31166 8.72078C3.29284 8.90796 3.3272 9.09665 3.4108 9.26519C3.50981 9.4648 3.70719 9.62177 4.10195 9.9357L4.82684 10.5122C5.07866 10.7124 5.20457 10.8126 5.2835 10.9199C5.36883 11.036 5.40521 11.1114 5.44293 11.2504C5.47783 11.379 5.47783 11.586 5.47783 12C5.47783 12.414 5.47783 12.621 5.44293 12.7497C5.40521 12.8887 5.36883 12.9641 5.28352 13.0801C5.20457 13.1875 5.07866 13.2876 4.82682 13.4879L4.102 14.0643C3.70724 14.3783 3.50986 14.5352 3.41084 14.7349C3.32724 14.9034 3.29288 15.0921 3.3117 15.2793C3.334 15.501 3.46337 15.7174 3.72212 16.1504L4.18149 16.919C4.42659 17.3291 4.54913 17.5342 4.72396 17.6567C4.87169 17.7603 5.04467 17.8219 5.22459 17.8352C5.43752 17.8508 5.66214 17.7695 6.11138 17.607L7.12492 17.2402C7.42155 17.1328 7.56989 17.0791 7.70229 17.0681C7.83233 17.0573 7.91098 17.064 8.03725 17.0969C8.16583 17.1304 8.33895 17.2293 8.68521 17.427C8.71167 17.4421 8.73824 17.4571 8.76493 17.4718C9.12692 17.6719 9.30792 17.772 9.40574 17.8684C9.5018 17.963 9.54914 18.0296 9.60704 18.1514C9.66601 18.2754 9.69384 18.4367 9.74951 18.7594L9.90554 19.6637C9.98834 20.1437 10.0297 20.3837 10.1518 20.5629C10.2548 20.7142 10.3975 20.8344 10.5642 20.9102C10.7615 21 11.0051 21 11.4921 21H12.5067C12.9937 21 13.2372 21 13.4346 20.9102C13.6013 20.8344 13.7439 20.7142 13.847 20.5629C13.969 20.3837 14.0104 20.1437 14.0932 19.6637L14.2493 18.7594C14.3049 18.4367 14.3328 18.2754 14.3917 18.1514C14.4496 18.0296 14.497 17.963 14.593 17.8684C14.6908 17.772 14.8718 17.6719 15.2338 17.4718C15.2605 17.4571 15.2871 17.4421 15.3135 17.427C15.6598 17.2293 15.8329 17.1304 15.9615 17.0969C16.0878 17.064 16.1664 17.0573 16.2965 17.0681C16.4289 17.0791 16.5772 17.1328 16.8738 17.2402L17.8874 17.607C18.3366 17.7696 18.5612 17.8509 18.7742 17.8352C18.9541 17.8219 19.1271 17.7603 19.2748 17.6567C19.4496 17.5342 19.5722 17.3291 19.8173 16.919L20.2766 16.1504C20.5354 15.7175 20.6648 15.501 20.6871 15.2793C20.7059 15.0921 20.6715 14.9034 20.5879 14.7349C20.4889 14.5353 20.2915 14.3783 19.8968 14.0643L19.172 13.4879C18.9201 13.2876 18.7942 13.1875 18.7152 13.0801C18.6299 12.9641 18.5936 12.8887 18.5558 12.7497C18.5209 12.6211 18.5209 12.414 18.5209 12C18.5209 11.586 18.5209 11.379 18.5558 11.2504C18.5936 11.1114 18.6299 11.036 18.7153 10.9199C18.7942 10.8126 18.9201 10.7124 19.1719 10.5122L19.8968 9.9357C20.2916 9.62176 20.489 9.46479 20.588 9.26517C20.6716 9.09664 20.7059 8.90795 20.6871 8.72076C20.6648 8.49906 20.5354 8.28259 20.2767 7.84964L19.8173 7.08102C19.5722 6.67093 19.4497 6.46588 19.2748 6.34332C19.1271 6.23977 18.9541 6.1781 18.7742 6.16486C18.5613 6.14919 18.3367 6.23048 17.8874 6.39307L16.8739 6.75989C16.5772 6.86725 16.4289 6.92093 16.2965 6.93195C16.1664 6.94278 16.0878 6.93601 15.9615 6.90313C15.8329 6.86965 15.6598 6.77077 15.3136 6.57302C15.2871 6.55791 15.2605 6.54298 15.2338 6.52822C14.8718 6.3281 14.6908 6.22804 14.593 6.13166C14.497 6.03703 14.4496 5.97047 14.3917 5.84869C14.3328 5.72467 14.3049 5.56332 14.2493 5.24064L14.0932 4.3363Z" fill="#7A7A7A"/>
</svg>
