<svg width="16" height="16" viewBox="0 0 16 16" fill="none" xmlns="http://www.w3.org/2000/svg">
<path d="M9.99992 15.1667H5.99992C2.37992 15.1667 0.833252 13.62 0.833252 10V6.00004C0.833252 2.38004 2.37992 0.833374 5.99992 0.833374H9.99992C13.6199 0.833374 15.1666 2.38004 15.1666 6.00004V10C15.1666 13.62 13.6199 15.1667 9.99992 15.1667ZM5.99992 1.83337C2.92658 1.83337 1.83325 2.92671 1.83325 6.00004V10C1.83325 13.0734 2.92658 14.1667 5.99992 14.1667H9.99992C13.0733 14.1667 14.1666 13.0734 14.1666 10V6.00004C14.1666 2.92671 13.0733 1.83337 9.99992 1.83337H5.99992Z" fill="#7A7A7A"/>
<path d="M8 15.1667C7.72667 15.1667 7.5 14.94 7.5 14.6667V1.33337C7.5 1.06004 7.72667 0.833374 8 0.833374C8.27333 0.833374 8.5 1.06004 8.5 1.33337V14.6667C8.5 14.94 8.27333 15.1667 8 15.1667Z" fill="#7A7A7A"/>
<path d="M14.6666 8.5H1.33325C1.05992 8.5 0.833252 8.27333 0.833252 8C0.833252 7.72667 1.05992 7.5 1.33325 7.5H14.6666C14.9399 7.5 15.1666 7.72667 15.1666 8C15.1666 8.27333 14.9399 8.5 14.6666 8.5Z" fill="#7A7A7A"/>
</svg>
