<svg width="24" height="24" viewBox="0 0 24 24" fill="none" xmlns="http://www.w3.org/2000/svg">
<rect x="-0.5" y="0.5" width="23" height="23" rx="11.5" transform="matrix(-1 0 0 1 23 0)" stroke="#1A1E25"/>
<path d="M8.5 16.5L16.5 8.5C16.7733 8.22667 16.7733 7.77333 16.5 7.5C16.2267 7.22667 15.7733 7.22667 15.5 7.5L7.5 15.5C7.22667 15.7733 7.22667 16.2267 7.5 16.5C7.77333 16.7733 8.22667 16.7733 8.5 16.5Z" fill="#1A1E25"/>
<path d="M16.5 16.5C16.7733 16.2267 16.7733 15.7733 16.5 15.5L8.5 7.5C8.22667 7.22667 7.77333 7.22667 7.5 7.5C7.22667 7.77333 7.22667 8.22667 7.5 8.5L15.5 16.5C15.7733 16.7733 16.2267 16.7733 16.5 16.5Z" fill="#1A1E25"/>
</svg>
