<svg width="54" height="50" viewBox="0 0 54 50" fill="none" xmlns="http://www.w3.org/2000/svg">
<path d="M53.3531 36.9831C53.3612 37.6094 52.9436 38.2277 52.1246 38.7093L35.1586 48.4972C33.5206 49.4447 30.8709 49.4447 29.2409 48.4972L1.87695 32.5991C1.06598 32.1253 0.664512 31.5151 0.664512 30.8968L0.648438 25.6616C0.648438 26.2719 1.05794 26.8901 1.86088 27.3639L29.2331 43.262C30.8629 44.2095 33.5045 44.2095 35.1506 43.262L52.1085 33.4662C52.9356 32.9925 53.3451 32.3743 53.3451 31.7479L53.3531 36.9831Z" fill="#003049"/>
<path d="M32.1968 49.5313C31.0649 49.5317 29.9345 49.2816 29.0748 48.7822L1.71097 32.8838C0.823501 32.3655 0.334932 31.6598 0.334932 30.897L0.318848 25.6715C0.318848 25.6687 0.318848 25.6659 0.318848 25.6631C0.318848 25.6627 0.318848 25.6623 0.318848 25.6619C0.318848 25.4801 0.466021 25.3329 0.647777 25.3325C0.82913 25.3325 0.977108 25.4793 0.97751 25.6606V25.6619C0.97751 26.1697 1.36032 26.6864 2.02783 27.0801L29.3981 42.9773C30.9306 43.8676 33.4374 43.8684 34.9859 42.9765L51.9434 33.1814C52.6351 32.7853 53.0155 32.2766 53.0155 31.7482C53.0155 31.5665 53.1627 31.4189 53.3444 31.4189C53.5262 31.4189 53.6741 31.5661 53.6741 31.7478C53.6741 31.7487 53.6741 31.7503 53.6741 31.7511L53.6822 36.981C53.6914 37.7462 53.1972 38.4607 52.2913 38.9935L35.3229 48.783C34.4599 49.282 33.3276 49.5313 32.1968 49.5313ZM0.981934 27.1083L0.993595 30.8958C0.993595 31.4161 1.36635 31.9195 2.04271 32.3148L29.4062 48.2128C30.9422 49.1051 33.4486 49.1055 34.9935 48.2124L51.9599 38.4241C52.6516 38.0176 53.03 37.5069 53.0235 36.9878C53.0235 36.9862 53.0235 36.985 53.0235 36.9838L53.0175 33.1947C52.8136 33.3977 52.5639 33.5851 52.272 33.7524L35.3152 43.5471C33.5548 44.5604 30.8107 44.5608 29.0672 43.5467L1.69528 27.6487C1.41742 27.485 1.17897 27.3037 0.981934 27.1083Z" fill="#1A1E25"/>
<path d="M32.2654 43.9682C31.1689 43.9803 30.0681 43.7476 29.2331 43.262L1.86088 27.3639C1.05794 26.8901 0.648438 26.2719 0.648438 25.6616L0.664512 30.8968C0.664512 31.5151 1.06598 32.1253 1.87695 32.5991L29.2409 48.4972C30.0734 48.9811 31.1716 49.2144 32.2654 49.204L32.2654 43.9682Z" fill="#003049"/>
<path d="M32.1936 49.5337C31.0158 49.5337 29.9108 49.268 29.0752 48.7822L1.71097 32.8838C0.823501 32.3655 0.334932 31.6598 0.334932 30.897L0.318848 25.6715C0.318848 25.6687 0.318848 25.6659 0.318848 25.6631C0.318848 25.6627 0.318848 25.6623 0.318848 25.6619C0.318848 25.4801 0.466021 25.3325 0.647777 25.3325C0.82913 25.3325 0.977108 25.4793 0.97751 25.6606V25.6687C0.981129 26.1741 1.36354 26.6884 2.02783 27.0801L29.3981 42.9773C30.1525 43.416 31.1634 43.6516 32.2616 43.6392C32.3661 43.6396 32.4345 43.6725 32.4968 43.7345C32.5595 43.796 32.5945 43.8804 32.5945 43.9685V49.204C32.5945 49.3846 32.449 49.5317 32.2684 49.5333C32.2435 49.5337 32.2181 49.5337 32.1936 49.5337ZM0.981934 27.1083L0.993595 30.8958C0.993595 31.4161 1.36635 31.9195 2.04271 32.3148L29.4062 48.2128C30.0829 48.6061 30.9716 48.8357 31.9359 48.8703V44.2946C30.8522 44.26 29.8441 43.9986 29.0672 43.5467L1.69528 27.6487C1.41742 27.485 1.17897 27.3037 0.981934 27.1083Z" fill="#1A1E25"/>
<path d="M1.88358 23.9333C0.243038 24.8804 0.234339 26.4136 1.86415 27.3607L29.2297 43.2639C30.8595 44.211 33.5064 44.211 35.147 43.2638L52.1105 33.4699C53.7457 32.5258 53.7544 30.9926 52.1246 30.0455L24.759 14.1424C23.1292 13.1952 20.4824 13.1952 18.8471 14.1394L1.88358 23.9333Z" fill="white"/>
<path d="M52.1086 33.4664L35.1507 43.2622C33.5046 44.2097 30.8629 44.2097 29.2331 43.2622L1.86095 27.3641C0.230969 26.4166 0.247044 24.883 1.88507 23.9355L7.98727 20.4106C9.18364 26.0874 13.8327 31.9328 20.746 35.6103C31.1762 41.1505 42.8268 39.633 46.7691 32.2138C47.5239 30.7927 47.9414 29.2589 48.0459 27.6772L52.1247 30.0459C53.7547 30.9934 53.7466 32.5269 52.1086 33.4664Z" fill="#E9EDF4"/>
<path d="M29.6856 39.3102C29.0458 39.3102 28.5636 39.162 28.3448 39.0342L7.50953 26.9265C6.53697 26.3613 6.53887 24.956 7.51295 24.3934L20.453 16.9203C20.6749 16.7925 21.161 16.6436 21.8024 16.6436C22.4431 16.6436 22.9269 16.7918 23.1456 16.9196L43.9808 29.028C44.9534 29.5932 44.9514 30.9986 43.9773 31.5611L31.0422 39.0303C30.8179 39.1597 30.3286 39.3102 29.6856 39.3102Z" fill="white"/>
<path d="M32.1842 44.3099C31.0599 44.3099 29.9372 44.0562 29.0638 43.5487L1.69833 27.6455C0.807245 27.1276 0.317068 26.4203 0.317872 25.653C0.319078 24.881 0.816493 24.1688 1.71844 23.6481L18.682 13.8542C20.4079 12.8582 23.2082 12.8602 24.9244 13.8578L52.2903 29.761C53.1818 30.279 53.6724 30.9871 53.6712 31.7547C53.6704 32.5256 53.1741 33.2361 52.275 33.7552L35.3118 43.5491C34.4332 44.0562 33.3077 44.3099 32.1842 44.3099ZM2.04817 24.2183C1.35774 24.6172 0.977339 25.1267 0.976937 25.6539C0.976133 26.1762 1.3501 26.6813 2.02967 27.0761L29.3951 42.9793C30.9296 43.8712 33.4364 43.8708 34.9821 42.9789L51.9453 33.185C52.6329 32.7882 53.0117 32.2799 53.0125 31.7539C53.0133 31.2312 52.6389 30.7257 51.959 30.3304L24.5931 14.4272C23.0586 13.5353 20.5543 13.5341 19.0117 14.4244L2.04817 24.2183Z" fill="#1A1E25"/>
<path d="M29.6854 39.6399C28.9797 39.6399 28.4441 39.4738 28.1787 39.3186L7.34355 27.2113C6.78421 26.8864 6.45086 26.3062 6.45166 25.6592C6.45247 25.0118 6.78783 24.4323 7.34797 24.1086L20.288 16.6353C20.5574 16.4801 21.0967 16.3145 21.8024 16.3145C22.5105 16.3145 23.0461 16.4801 23.3115 16.6353L44.1462 28.7434C44.7056 29.0687 45.0393 29.649 45.0385 30.2964C45.0373 30.9434 44.7024 31.5228 44.1422 31.8465L31.207 39.3154C30.9352 39.4722 30.3927 39.6399 29.6854 39.6399ZM21.8024 16.9731C21.1855 16.9731 20.7673 17.1195 20.6173 17.2059L7.67771 24.6788C7.32303 24.8839 7.11113 25.2506 7.11073 25.66C7.10992 26.0693 7.32103 26.4365 7.67489 26.6419L28.5104 38.7496C28.658 38.8356 29.0706 38.9812 29.6854 38.9812C30.3035 38.9812 30.7257 38.8328 30.8777 38.7448L43.8125 31.2763C44.1671 31.0712 44.3791 30.7049 44.3795 30.2956C44.3803 29.8858 44.1691 29.5187 43.8149 29.3128L22.9797 17.2043C22.8326 17.1183 22.4196 16.9731 21.8024 16.9731Z" fill="#1A1E25"/>
<path d="M37.8167 38.6506C37.7029 38.6506 37.5919 38.5915 37.5312 38.4861C37.4399 38.3285 37.4942 38.1271 37.6514 38.0362L41.5012 35.8133C41.6597 35.722 41.8607 35.7767 41.9512 35.9335C42.0425 36.0912 41.9882 36.2926 41.831 36.3835L37.9811 38.6064C37.9293 38.6365 37.8726 38.6506 37.8167 38.6506Z" fill="#1A1E25"/>
<path d="M9.42707 34.786C9.37118 34.786 9.31448 34.7719 9.26261 34.7418L7.83068 33.9146C7.67305 33.8237 7.61917 33.6223 7.71045 33.4646C7.80092 33.307 8.00198 33.2527 8.16041 33.3444L9.59234 34.1716C9.74997 34.2624 9.80385 34.4639 9.71257 34.6215C9.65185 34.7269 9.54087 34.786 9.42707 34.786Z" fill="#1A1E25"/>
<path d="M6.29093 32.9741C6.23503 32.9741 6.17833 32.9601 6.12646 32.9299L3.21154 31.2458C3.05391 31.155 3.00003 30.9535 3.09131 30.7959C3.18178 30.6383 3.38364 30.5836 3.54127 30.6756L6.4562 32.3597C6.61382 32.4506 6.66771 32.652 6.57643 32.8097C6.51571 32.915 6.40472 32.9741 6.29093 32.9741Z" fill="#1A1E25"/>
<path d="M25.1005 24.6779C27.0062 25.7782 27.011 27.5578 25.1229 28.6551C23.2297 29.7553 20.1573 29.7583 18.2516 28.6581C16.3512 27.5608 16.3411 25.7781 18.2343 24.6779C20.1224 23.5807 23.2001 23.5807 25.1005 24.6779Z" fill="white"/>
<path d="M21.6873 29.8042C20.3845 29.8042 19.0808 29.5171 18.0868 28.9429C17.059 28.3498 16.4924 27.5403 16.4912 26.6641C16.4896 25.7915 17.0502 24.9849 18.0687 24.393C20.0471 23.2441 23.2757 23.2441 25.2653 24.3922C26.2948 24.9865 26.8629 25.7964 26.8641 26.6722C26.8654 27.5431 26.3056 28.3486 25.2887 28.9397C24.297 29.5159 22.9926 29.8042 21.6873 29.8042ZM21.6628 24.1803C20.4794 24.1803 19.2976 24.4408 18.4 24.9624C17.593 25.4316 17.1491 26.0356 17.1499 26.6629C17.1507 27.2946 17.6006 27.9014 18.4165 28.3727C20.2244 29.417 23.1591 29.4154 24.9573 28.3703C25.7632 27.9022 26.2063 27.2995 26.2051 26.6734C26.2043 26.0425 25.7535 25.4349 24.936 24.9628C24.0321 24.4412 22.8466 24.1803 21.6628 24.1803Z" fill="#1A1E25"/>
<path d="M24.7383 10.1993L24.7092 26.0226C24.708 26.4531 24.4247 26.883 23.8596 27.2115C22.7234 27.8718 20.8779 27.8718 19.7342 27.2115C19.158 26.8788 18.8699 26.442 18.8711 26.0059L18.9001 10.1826C18.8989 10.6187 19.1871 11.0555 19.7633 11.3882C20.9069 12.0485 22.7524 12.0485 23.8887 11.3882C24.4538 11.0598 24.737 10.6298 24.7383 10.1993Z" fill="white"/>
<path d="M24.7398 10.2002L24.7098 26.0232C24.7098 26.4546 24.4222 26.8861 23.8589 27.2097C22.7923 27.8389 21.0904 27.8749 19.9399 27.3116C22.0971 26.5925 23.7511 23.8865 23.7511 18.6492C23.7511 16.0307 23.3375 13.6398 22.6545 11.8121C23.1039 11.7342 23.5293 11.5963 23.8889 11.3867C24.4521 11.063 24.7398 10.6316 24.7398 10.2002Z" fill="#E9EDF4"/>
<path d="M23.8778 8.99716C25.0214 9.65744 25.0246 10.7281 23.8884 11.3884C22.7522 12.0487 20.9067 12.0487 19.763 11.3884C18.6194 10.7281 18.6105 9.65745 19.7467 8.99716C20.8829 8.33689 22.7341 8.33688 23.8778 8.99716Z" fill="white"/>
<path d="M21.7995 28.0395C20.9981 28.0395 20.1959 27.859 19.5694 27.4971C18.9051 27.1139 18.5404 26.5843 18.542 26.0056L18.5709 10.1849C18.5709 10.1837 18.5709 10.1828 18.5709 10.182C18.5714 10.0003 18.7189 9.85352 18.9003 9.85352C18.8999 9.85352 18.9007 9.85352 18.9003 9.85352C19.082 9.85392 19.23 10.0015 19.2296 10.1837C19.2288 10.5162 19.4769 10.8427 19.9285 11.1037C20.978 11.7093 22.681 11.7097 23.7232 11.1041C24.1648 10.8475 24.4084 10.5259 24.4092 10.1989C24.4096 10.0172 24.5572 9.8704 24.7386 9.8704C24.7382 9.8704 24.739 9.8704 24.7386 9.8704C24.9203 9.87081 25.0683 10.0184 25.0679 10.2005L25.0386 26.0237C25.0369 26.5947 24.6771 27.1179 24.0256 27.4967C23.4028 27.8586 22.6017 28.0395 21.7995 28.0395ZM19.2276 11.4193L19.2007 26.0068C19.1999 26.3398 19.448 26.6663 19.8987 26.9265C20.9482 27.5325 22.6512 27.5325 23.6943 26.9273C24.1354 26.6707 24.3791 26.3494 24.3799 26.0221L24.4068 11.4322C24.3011 11.5179 24.1837 11.5987 24.0546 11.6735C22.8092 12.3973 20.8521 12.3977 19.5988 11.6739C19.462 11.5951 19.3382 11.5098 19.2276 11.4193Z" fill="#1A1E25"/>
<path d="M21.8287 12.2162C21.0273 12.2162 20.2251 12.0357 19.5986 11.6738C18.9367 11.2918 18.5716 10.7638 18.5708 10.1876C18.57 9.61535 18.9291 9.0918 19.5813 8.7126C20.8287 7.98799 22.7882 7.98759 24.0428 8.7122C24.7026 9.093 25.067 9.61977 25.0678 10.1952C25.0686 10.7682 24.7087 11.2934 24.0544 11.6734C23.4316 12.0353 22.6305 12.2162 21.8287 12.2162ZM21.8098 8.83485C21.117 8.83485 20.4258 8.98403 19.9127 9.282C19.4715 9.53814 19.2291 9.85943 19.2295 10.1868C19.2303 10.5181 19.478 10.8434 19.9283 11.1036C20.9771 11.7088 22.68 11.7096 23.7231 11.104C24.1658 10.8466 24.4091 10.5241 24.4087 10.196C24.4083 9.86587 24.1614 9.54136 23.713 9.2824C23.1963 8.98403 22.5027 8.83485 21.8098 8.83485Z" fill="#1A1E25"/>
<path d="M28.6404 26.7788C28.5287 26.7788 28.4241 26.7221 28.3634 26.6276L18.0287 10.533C17.5775 9.95795 17.3443 9.17222 17.3443 8.24334C17.3366 5.60788 19.1984 2.38373 21.4945 1.05635C22.1753 0.665498 22.8315 0.469267 23.4697 0.472081C23.4946 0.467256 23.5211 0.465245 23.5449 0.466854L42.2749 1.50833C42.3883 1.51476 42.4905 1.5787 42.5451 1.67802C42.5998 1.77694 42.5998 1.89758 42.5451 1.9969L28.9288 26.6091C28.8725 26.7104 28.7671 26.7748 28.6513 26.7788C28.6477 26.7788 28.6441 26.7788 28.6404 26.7788ZM23.4339 1.13074C22.9453 1.13074 22.3908 1.30124 21.8234 1.62695C19.7103 2.84858 17.9961 5.81658 18.0029 8.24253C18.0029 9.02223 18.1871 9.66682 18.5353 10.1075C18.5418 10.116 18.5771 10.1679 18.5828 10.1767L28.6195 25.8069L41.7144 2.13683L23.575 1.12833C23.5553 1.13195 23.536 1.13436 23.5139 1.13235C23.4874 1.13115 23.4604 1.13074 23.4339 1.13074Z" fill="#1A1E25"/>
<path d="M42.2567 1.83731L28.64 26.4494L18.3053 10.3549L18.2765 10.3118C17.896 9.83069 17.6734 9.12688 17.6734 8.24353C17.6662 5.70833 19.4472 2.62011 21.6593 1.34172C22.3344 0.953965 22.9735 0.781608 23.5265 0.803087V0.795898L42.2567 1.83731Z" fill="#D52133"/>
<path d="M42.2552 1.83476L28.6407 26.451L18.3041 10.3558L18.2741 10.3138C17.8966 9.82844 17.6748 9.12739 17.6748 8.24054C17.6688 6.45486 18.5497 4.39348 19.8561 2.88941C19.4905 4.03995 19.2867 5.28632 19.2867 6.58667C19.2867 12.4411 23.3675 17.187 28.3951 17.187C33.4226 17.187 37.5033 12.4411 37.5033 6.58667C37.5033 4.747 37.1017 3.01522 36.3947 1.51123L42.2552 1.83476Z" fill="#D52133"/>
<path d="M28.6404 26.7788C28.5287 26.7788 28.4241 26.7221 28.3634 26.6276L18.0287 10.533C17.5775 9.95795 17.3443 9.17222 17.3443 8.24334C17.3366 5.60788 19.1984 2.38373 21.4945 1.05635C22.1753 0.665498 22.8315 0.469267 23.4697 0.472081C23.4946 0.467256 23.5211 0.465245 23.5449 0.466854L42.2749 1.50833C42.3883 1.51476 42.4905 1.5787 42.5451 1.67802C42.5998 1.77694 42.5998 1.89758 42.5451 1.9969L28.9288 26.6091C28.8725 26.7104 28.7671 26.7748 28.6513 26.7788C28.6477 26.7788 28.6441 26.7788 28.6404 26.7788ZM23.4339 1.13074C22.9453 1.13074 22.3908 1.30124 21.8234 1.62695C19.7103 2.84858 17.9961 5.81658 18.0029 8.24253C18.0029 9.02223 18.1871 9.66682 18.5353 10.1075C18.5418 10.116 18.5771 10.1679 18.5828 10.1767L28.6195 25.8069L41.7144 2.13683L23.575 1.12833C23.5553 1.13195 23.536 1.13436 23.5139 1.13235C23.4874 1.13115 23.4604 1.13074 23.4339 1.13074Z" fill="#1A1E25"/>
<path d="M37.828 3.27775C43.6284 -0.0711516 48.3484 2.61332 48.3673 9.28372C48.3862 15.9542 43.6969 24.0763 37.8964 27.4252C32.0869 30.7794 27.3715 28.087 27.3526 21.4166C27.3337 14.7462 32.0184 6.6319 37.828 3.27775Z" fill="white"/>
<path d="M33.1776 26.4715C30.0966 26.4715 29.7537 22.9318 29.7496 21.4103C29.7326 15.6193 33.981 8.26648 39.0265 5.35344C40.2957 4.62079 41.5112 4.2334 42.5423 4.2334C45.6232 4.2334 45.9662 7.77025 45.9703 9.29055C45.9866 15.0845 41.7406 22.4384 36.698 25.3497C35.4264 26.0836 34.2092 26.4715 33.1776 26.4715Z" fill="white"/>
<path d="M45.9704 9.28987C45.9884 15.0845 41.7398 22.437 36.7003 25.3492C35.4239 26.0802 34.2076 26.4698 33.1768 26.4698C31.8705 26.4698 31.0555 25.8286 30.5522 24.9777C30.714 25.0077 30.8878 25.0196 31.0736 25.0196C32.1103 25.0196 33.3266 24.6302 34.597 23.8991C39.6365 20.9868 43.8851 13.6343 43.8671 7.83979C43.8671 6.96494 43.7532 5.42488 43.064 4.27441C45.6647 4.64586 45.9644 7.85778 45.9704 9.28987Z" fill="#D52133"/>
<path d="M33.1767 26.7996C31.9144 26.7996 30.9087 26.2278 30.2686 25.1457C30.203 25.0347 30.2078 24.8956 30.2818 24.7894C30.3562 24.6837 30.4873 24.6326 30.6116 24.6539C30.7551 24.6805 30.9091 24.6905 31.0736 24.6905C32.0475 24.6905 33.2088 24.3181 34.4325 23.614C39.3853 20.7514 43.5552 13.5282 43.5375 7.84112C43.5375 7.04293 43.439 5.54224 42.7811 4.44406C42.716 4.33509 42.7192 4.19837 42.7896 4.09262C42.8596 3.98686 42.9838 3.93056 43.1105 3.94866C45.9703 4.35681 46.2936 7.81901 46.2996 9.28873C46.3181 15.1829 41.9978 22.6683 36.8652 25.6347C35.5338 26.3971 34.2587 26.7996 33.1767 26.7996ZM31.2308 25.3464C32.3169 26.5181 34.2764 26.3589 36.5367 25.0637C41.4888 22.2014 45.6587 14.9782 45.641 9.29115C45.6362 8.12703 45.421 5.54867 43.6807 4.78667C44.1214 5.89047 44.1962 7.12697 44.1962 7.83992C44.2147 13.7329 39.8944 21.2182 34.7618 24.1846C33.5012 24.9105 32.2844 25.3102 31.2308 25.3464Z" fill="#1A1E25"/>
<path d="M33.177 29.2023C32.1186 29.2023 31.1382 28.9546 30.2713 28.456C28.1859 27.2561 27.0323 24.7561 27.023 21.4174C27.0037 14.6562 31.7768 6.39076 37.6629 2.9929C40.5859 1.30563 43.3512 1.04224 45.4495 2.24939C47.534 3.44889 48.6873 5.94683 48.6965 9.28317C48.7158 16.0471 43.9448 24.3138 38.061 27.7104C36.344 28.7017 34.6817 29.2023 33.177 29.2023ZM42.541 2.16213C41.1533 2.16213 39.6048 2.6326 37.9927 3.56309C32.2887 6.85641 27.6632 14.8649 27.6817 21.4157C27.6905 24.5096 28.7268 26.8069 30.5998 27.885C32.4861 28.9699 35.0198 28.7061 37.7313 27.1402C43.4329 23.8485 48.0564 15.8384 48.0379 9.28477C48.029 6.19372 46.9932 3.89765 45.1209 2.82039C44.3565 2.38048 43.486 2.16213 42.541 2.16213Z" fill="#1A1E25"/>
<path d="M33.1773 26.8011C29.8 26.8011 29.4248 23.0321 29.42 21.4111C29.4027 15.5169 33.7266 8.0328 38.8616 5.06842C40.1809 4.30681 41.4536 3.9043 42.5422 3.9043C45.9207 3.9043 46.2955 7.6705 46.2995 9.28981C46.3164 15.1868 41.9949 22.6722 36.8627 25.6349C35.541 26.3981 34.2667 26.8011 33.1773 26.8011ZM42.5422 4.56296C41.569 4.56296 40.4102 4.93491 39.1913 5.63861C34.2353 8.50006 30.0621 15.722 30.0786 21.4095C30.0827 22.8326 30.3931 26.1424 33.1773 26.1424C34.1512 26.1424 35.3113 25.7696 36.533 25.0643C41.4862 22.2049 45.6569 14.9817 45.6409 9.29142C45.6368 7.86994 45.3276 4.56296 42.5422 4.56296Z" fill="#1A1E25"/>
<path d="M33.1773 26.7983C29.8052 26.7983 29.4264 23.0321 29.42 21.4128C29.4143 19.3672 29.929 17.0639 30.9086 14.7518C31.7289 12.7838 32.8769 10.8581 34.2268 9.18411C35.6379 7.42848 37.2399 6.005 38.8604 5.06687C40.185 4.30486 41.4581 3.90234 42.543 3.90234C45.9147 3.90234 46.2935 7.66854 46.2999 9.28786C46.3184 15.1824 41.9981 22.6674 36.8655 25.6334C35.5458 26.3954 34.2707 26.7983 33.1773 26.7983ZM42.543 4.56101C41.5731 4.56101 40.4134 4.93336 39.1897 5.63747C37.6396 6.53458 36.1007 7.90418 34.7403 9.59708C33.4282 11.2236 32.3136 13.0943 31.5158 15.0067C30.57 17.2397 30.0734 19.4537 30.0786 21.4108C30.0843 22.8323 30.3975 26.1396 33.1773 26.1396C34.1549 26.1396 35.3166 25.7673 36.5358 25.0632C41.489 22.2005 45.6589 14.9774 45.6412 9.29027C45.6356 7.86839 45.3224 4.56101 42.543 4.56101Z" fill="#1A1E25"/>
<path d="M33.1767 26.7996C31.9144 26.7996 30.9087 26.2278 30.2686 25.1457C30.203 25.0347 30.2078 24.8956 30.2818 24.7894C30.3562 24.6837 30.4873 24.6326 30.6116 24.6539C30.7551 24.6805 30.9091 24.6905 31.0736 24.6905C32.0475 24.6905 33.2088 24.3181 34.4325 23.614C39.3853 20.7514 43.5552 13.5282 43.5375 7.84112C43.5375 7.04293 43.439 5.54224 42.7811 4.44406C42.716 4.33509 42.7192 4.19837 42.7896 4.09262C42.8596 3.98686 42.9838 3.93056 43.1105 3.94866C45.9703 4.35681 46.2936 7.81901 46.2996 9.28873C46.3181 15.1829 41.9978 22.6683 36.8652 25.6347C35.5338 26.3971 34.2587 26.7996 33.1767 26.7996ZM31.2308 25.3464C32.3169 26.5181 34.2764 26.3589 36.5367 25.0637C41.4888 22.2014 45.6587 14.9782 45.641 9.29115C45.6362 8.12703 45.421 5.54867 43.6807 4.78667C44.1214 5.89047 44.1962 7.12697 44.1962 7.83992C44.2147 13.7329 39.8944 21.2182 34.7618 24.1846C33.5012 24.9105 32.2844 25.3102 31.2308 25.3464Z" fill="#1A1E25"/>
<path d="M38.9114 15.5692C38.0426 17.1032 36.0951 17.6425 34.561 16.7736L31.2114 14.8801C32.0263 12.9266 33.1589 11.033 34.4832 9.39111L37.707 11.2128C39.241 12.0816 39.7804 14.0351 38.9114 15.5692Z" fill="white"/>
<path d="M39.3248 13.9693C39.331 14.5086 39.199 15.0659 38.9114 15.5693C38.0426 17.1033 36.0951 17.6426 34.561 16.7737L31.2114 14.8801C31.5769 14.0052 32.0023 13.1484 32.4877 12.3154C32.9971 14.0892 34.5372 15.3715 36.3527 15.3715C37.5272 15.3715 38.5878 14.8322 39.3248 13.9693Z" fill="#E9EDF4"/>
<path d="M36.1276 17.5168C35.5401 17.5168 34.9454 17.3701 34.3985 17.0604L31.0493 15.1669C30.9041 15.0849 30.843 14.9071 30.9073 14.7535C31.7284 12.784 32.8765 10.8582 34.2264 9.18423C34.3281 9.05797 34.5042 9.02419 34.645 9.10421L37.8687 10.9262C38.6874 11.3898 39.2765 12.145 39.5274 13.0538C39.7788 13.9617 39.6613 14.9127 39.1977 15.7315C38.5507 16.8743 37.356 17.5168 36.1276 17.5168ZM31.6295 14.7382L34.723 16.487C36.0958 17.2651 37.8466 16.7798 38.6243 15.4065C39.0015 14.741 39.0968 13.9678 38.8925 13.2291C38.6886 12.4904 38.2097 11.8764 37.5442 11.4996L34.5658 9.81595C33.39 11.313 32.3811 13.0043 31.6295 14.7382Z" fill="#1A1E25"/>
</svg>
