<svg width="6" height="8" viewBox="0 0 6 8" fill="none" xmlns="http://www.w3.org/2000/svg">
<path d="M2.74609 7.5C2.64609 7.5 2.55609 7.48 2.45609 7.44C2.17609 7.33 1.99609 7.05 1.99609 6.75V0.75C1.99609 0.34 2.33609 0 2.74609 0C3.15609 0 3.49609 0.34 3.49609 0.75V4.94L4.21609 4.22C4.50609 3.93 4.98609 3.93 5.27609 4.22C5.56609 4.51 5.56609 4.99 5.27609 5.28L3.27609 7.28C3.13609 7.42 2.93609 7.5 2.74609 7.5Z" fill="#D52133"/>
<path d="M2.7475 7.49994C2.5575 7.49994 2.3675 7.42994 2.2175 7.27994L0.2175 5.27994C-0.0725 4.98994 -0.0725 4.50994 0.2175 4.21994C0.5075 3.92994 0.9875 3.92994 1.2775 4.21994L3.2775 6.21994C3.5675 6.50994 3.5675 6.98994 3.2775 7.27994C3.1275 7.42994 2.9375 7.49994 2.7475 7.49994Z" fill="#D52133"/>
</svg>
