<svg width="40" height="40" viewBox="0 0 40 40" fill="none" xmlns="http://www.w3.org/2000/svg">
<path d="M33.3333 21.6661C33.3333 29.9994 27.5 34.1661 20.5666 36.5828C20.2036 36.7058 19.8092 36.6999 19.45 36.5661C12.5 34.1661 6.66663 29.9994 6.66663 21.6661V9.99945C6.66663 9.55742 6.84222 9.1335 7.15478 8.82094C7.46734 8.50838 7.89127 8.33278 8.33329 8.33278C11.6666 8.33278 15.8333 6.33278 18.7333 3.79945C19.0864 3.49778 19.5355 3.33203 20 3.33203C20.4644 3.33203 20.9135 3.49778 21.2666 3.79945C24.1833 6.34945 28.3333 8.33278 31.6666 8.33278C32.1087 8.33278 32.5326 8.50838 32.8451 8.82094C33.1577 9.1335 33.3333 9.55742 33.3333 9.99945V21.6661Z" stroke="#FB6B18" stroke-width="3.33333" stroke-linecap="round" stroke-linejoin="round"/>
<path d="M10.6267 31.5174C11.3379 29.6043 12.6174 27.9547 14.2934 26.79C15.9694 25.6254 17.9617 25.0014 20.0026 25.002C22.0436 25.0025 24.0355 25.6275 25.7109 26.7931C27.3862 27.9587 28.6649 29.6089 29.375 31.5224" stroke="#FB6B18" stroke-width="3.33333" stroke-linecap="round" stroke-linejoin="round"/>
<path d="M20 24.9993C23.6819 24.9993 26.6667 22.0146 26.6667 18.3327C26.6667 14.6508 23.6819 11.666 20 11.666C16.3181 11.666 13.3334 14.6508 13.3334 18.3327C13.3334 22.0146 16.3181 24.9993 20 24.9993Z" stroke="#FB6B18" stroke-width="3.33333" stroke-linecap="round" stroke-linejoin="round"/>
</svg>
