<svg width="16" height="17" viewBox="0 0 16 17" fill="none" xmlns="http://www.w3.org/2000/svg">
<g clip-path="url(#clip0_2401_29931)">
<path d="M2.0543 3.76848C2.37858 3.44134 2.76362 3.18182 3.1874 3.00476C3.61119 2.8277 4.06541 2.73657 4.52414 2.73657C4.98286 2.73657 5.43709 2.8277 5.86087 3.00476C6.28465 3.18182 6.66969 3.44134 6.99398 3.76848L7.66699 4.44711L8.34001 3.76848C8.99505 3.10798 9.88348 2.73691 10.8099 2.73691C11.7362 2.73691 12.6246 3.10798 13.2797 3.76848C13.9347 4.42898 14.3027 5.32482 14.3027 6.2589C14.3027 7.19299 13.9347 8.08883 13.2797 8.74933L12.6067 9.42795L7.66699 14.4088L2.72731 9.42795L2.0543 8.74933C1.72985 8.42234 1.47248 8.03409 1.29689 7.60678C1.12129 7.17946 1.03091 6.72145 1.03091 6.2589C1.03091 5.79636 1.12129 5.33835 1.29689 4.91103C1.47248 4.48372 1.72985 4.09547 2.0543 3.76848Z" fill="white" stroke="#7A7A7A" stroke-linecap="round" stroke-linejoin="round"/>
</g>
<defs>
<clipPath id="clip0_2401_29931">
<rect width="15.2381" height="15.3651" fill="white" transform="matrix(-1 0 0 1 15.2861 0.817444)"/>
</clipPath>
</defs>
</svg>
