<svg width="16" height="16" viewBox="0 0 16 16" fill="none" xmlns="http://www.w3.org/2000/svg">
<path d="M4.07349 12.1664C3.95349 12.1664 3.82681 12.1197 3.73348 12.0331C2.41348 10.7931 0.833496 8.70642 0.833496 5.79309C0.833496 3.45976 2.72016 1.56641 5.04016 1.56641C6.16683 1.56641 7.22016 2.00642 8.00016 2.79309C8.78016 2.00642 9.8335 1.56641 10.9602 1.56641C11.8002 1.56641 12.6135 1.81975 13.3135 2.28642C13.5401 2.43975 13.6002 2.75307 13.4468 2.97974C13.2935 3.2064 12.9802 3.26641 12.7535 3.11308C12.2268 2.75308 11.6068 2.55977 10.9668 2.55977C9.9535 2.55977 9.01349 3.03311 8.40682 3.85311C8.22015 4.10644 7.79348 4.10644 7.60681 3.85311C6.99348 3.03311 6.06017 2.55977 5.04683 2.55977C3.28017 2.55977 1.84017 4.00642 1.84017 5.78642C1.84017 8.34642 3.24684 10.1931 4.42684 11.2998C4.62684 11.4864 4.64016 11.8064 4.45349 12.0064C4.34016 12.1131 4.20682 12.1664 4.07349 12.1664Z" fill="#D52133"/>
<path d="M8.00009 14.4335C7.79343 14.4335 7.59344 14.4069 7.42677 14.3469C6.92677 14.1735 6.33344 13.8935 5.7601 13.5535C5.5201 13.4135 5.44676 13.1069 5.58676 12.8669C5.72676 12.6335 6.03341 12.5535 6.27341 12.6935C6.79341 13.0002 7.3201 13.2535 7.75343 13.4002C7.87343 13.4402 8.13343 13.4402 8.25343 13.4002C9.78676 12.8735 14.1734 10.3469 14.1734 5.78686C14.1734 5.45353 14.1201 5.12685 14.0267 4.81351C13.9467 4.54685 14.0868 4.26688 14.3534 4.18688C14.6201 4.10688 14.9001 4.25354 14.9801 4.51354C15.1067 4.92688 15.1734 5.35353 15.1734 5.78686C15.1734 10.3735 11.1268 13.4669 8.58009 14.3402C8.40676 14.4069 8.20676 14.4335 8.00009 14.4335Z" fill="#D52133"/>
<path d="M1.33331 15.1666C1.20665 15.1666 1.07996 15.12 0.979961 15.02C0.786628 14.8267 0.786628 14.5066 0.979961 14.3133L14.3133 0.979961C14.5066 0.786628 14.8267 0.786628 15.02 0.979961C15.2133 1.17329 15.2133 1.49333 15.02 1.68667L1.68667 15.02C1.58667 15.12 1.45998 15.1666 1.33331 15.1666Z" fill="#D52133"/>
</svg>
