<svg width="16" height="16" viewBox="0 0 16 16" fill="none" xmlns="http://www.w3.org/2000/svg">
<path d="M6.08969 13.8491V11.8106C6.08969 11.2902 6.51462 10.8684 7.03879 10.8684H8.95491C9.20663 10.8684 9.44804 10.9676 9.62603 11.1443C9.80402 11.321 9.90402 11.5607 9.90402 11.8106V13.8491C9.90243 14.0654 9.98788 14.2734 10.1414 14.4269C10.295 14.5805 10.5039 14.6668 10.7218 14.6668H12.0291C12.6396 14.6684 13.2257 14.4287 13.658 14.0007C14.0902 13.5727 14.3332 12.9915 14.3332 12.3854V6.57807C14.3332 6.08847 14.1146 5.62406 13.7362 5.30994L9.28919 1.78408C8.51561 1.16587 7.40725 1.18583 6.65676 1.83148L2.31118 5.30994C1.915 5.6148 1.67821 6.08059 1.6665 6.57807V12.3795C1.6665 13.6427 2.69809 14.6668 3.97062 14.6668H5.24803C5.70065 14.6668 6.0685 14.3043 6.07178 13.855L6.08969 13.8491Z" fill="#D52133"/>
</svg>
