<svg width="22" height="20" viewBox="0 0 22 20" fill="none" xmlns="http://www.w3.org/2000/svg">
<g clip-path="url(#clip0_3499_32379)">
<path stroke="currentColor" stroke-width="1.5" stroke-miterlimit="10" d="M21.3114 8.52219L11.7047 1.02219C11.5487 0.900477 11.3534 0.833984 11.1519 0.833984C10.9504 0.833984 10.7551 0.900477 10.5991 1.02219L0.992403 8.52219C0.817148 8.66329 0.707079 8.8645 0.685964 9.08237C0.664849 9.30024 0.734381 9.51729 0.879547 9.68667C1.02471 9.85604 1.23387 9.96414 1.46185 9.98762C1.68982 10.0111 1.91834 9.9481 2.09804 9.81219L3.29189 8.88052V18.3339C3.29189 18.5549 3.3839 18.7668 3.54768 18.9231C3.71146 19.0794 3.9336 19.1672 4.16522 19.1672H9.40522V14.1672H12.8986V19.1672H18.1386C18.3702 19.1672 18.5923 19.0794 18.7561 18.9231C18.9199 18.7668 19.0119 18.5549 19.0119 18.3339V8.88052L20.2057 9.81219C20.2943 9.88346 20.3967 9.93721 20.5072 9.97032C20.6177 10.0034 20.734 10.0152 20.8493 10.0051C20.9647 9.99489 21.0767 9.96293 21.179 9.91105C21.2812 9.85916 21.3716 9.78839 21.445 9.70284C21.5183 9.6173 21.573 9.51869 21.606 9.41276C21.639 9.30684 21.6496 9.1957 21.6372 9.08583C21.6248 8.97596 21.5896 8.86954 21.5336 8.77278C21.4777 8.67601 21.4021 8.59083 21.3114 8.52219Z" fill="none"/>
</g>
<defs>
<clipPath id="clip0_3499_32379">
<rect width="20.96" height="20" transform="translate(0.671875)"/>
</clipPath>
</defs>
</svg>
