<svg width="33" height="33" viewBox="0 0 33 33" fill="none" xmlns="http://www.w3.org/2000/svg">
<path d="M16.4998 19.3933C13.6598 19.3933 11.3398 17.0867 11.3398 14.2333C11.3398 11.38 13.6598 9.08667 16.4998 9.08667C19.3398 9.08667 21.6598 11.3933 21.6598 14.2467C21.6598 17.1 19.3398 19.3933 16.4998 19.3933ZM16.4998 11.0867C14.7665 11.0867 13.3398 12.5 13.3398 14.2467C13.3398 15.9933 14.7532 17.4067 16.4998 17.4067C18.2465 17.4067 19.6598 15.9933 19.6598 14.2467C19.6598 12.5 18.2332 11.0867 16.4998 11.0867Z" fill="white"/>
<path d="M16.5002 30.8466C14.5269 30.8466 12.5402 30.1 10.9936 28.62C7.06023 24.8333 2.71357 18.7933 4.35357 11.6066C5.83357 5.08663 11.5269 2.16663 16.5002 2.16663C16.5002 2.16663 16.5002 2.16663 16.5136 2.16663C21.4869 2.16663 27.1802 5.08663 28.6602 11.62C30.2869 18.8066 25.9402 24.8333 22.0069 28.62C20.4602 30.1 18.4736 30.8466 16.5002 30.8466ZM16.5002 4.16663C12.6202 4.16663 7.63357 6.23329 6.31357 12.0466C4.87357 18.3266 8.82023 23.74 12.3936 27.1666C14.7002 29.3933 18.3136 29.3933 20.6202 27.1666C24.1802 23.74 28.1269 18.3266 26.7136 12.0466C25.3802 6.23329 20.3802 4.16663 16.5002 4.16663Z" fill="white"/>
</svg>
