<svg width="22" height="22" viewBox="0 0 27 27" fill="none" xmlns="http://www.w3.org/2000/svg">
<path fill="currentColor" d="M17.4759 23.9078C16.9957 23.9078 16.5156 23.8073 16.1247 23.6175L10.2622 20.6806C9.92723 20.5131 9.26839 20.5243 8.94456 20.7141L6.30923 22.2216C5.17023 22.8693 3.99773 22.9586 3.11556 22.4338C2.22223 21.9201 1.71973 20.8705 1.71973 19.5528V8.69881C1.71973 7.68264 2.38973 6.53248 3.27189 6.02998L8.10706 3.26065C8.92223 2.79165 10.1617 2.75815 10.9992 3.18248L16.8617 6.11931C17.1967 6.28681 17.8444 6.26448 18.1794 6.08581L20.8036 4.58948C21.9426 3.94181 23.1151 3.85248 23.9972 4.37731C24.8906 4.89098 25.3931 5.94065 25.3931 7.25831V18.1235C25.3931 19.1396 24.7231 20.2898 23.8409 20.7923L19.0057 23.5616C18.5814 23.785 18.0231 23.9078 17.4759 23.9078ZM9.64806 18.894C10.1282 18.894 10.6084 18.9945 10.9992 19.1843L16.8617 22.1211C17.1967 22.2886 17.8444 22.2663 18.1794 22.0876L23.0146 19.3183C23.3719 19.1173 23.7181 18.5143 23.7181 18.1123V7.24715C23.7181 6.54364 23.5171 6.01881 23.1486 5.81781C22.7912 5.61681 22.2329 5.69498 21.6299 6.04115L19.0057 7.53748C18.1906 8.00648 16.9511 8.03998 16.1136 7.61564L10.2511 4.67881C9.91606 4.51131 9.26839 4.53365 8.93339 4.71231L4.09823 7.48164C3.74089 7.68264 3.39473 8.28565 3.39473 8.69881V19.564C3.39473 20.2675 3.59573 20.7923 3.95306 20.9933C4.31039 21.2055 4.86873 21.1161 5.48289 20.77L8.10706 19.2736C8.54256 19.0168 9.10089 18.894 9.64806 18.894Z" fill="currentColor"/>
<path d="M9.55869 19.8211C9.10086 19.8211 8.72119 19.4414 8.72119 18.9836V4.46689C8.72119 4.00906 9.10086 3.62939 9.55869 3.62939C10.0165 3.62939 10.3962 4.00906 10.3962 4.46689V18.9836C10.3962 19.4414 10.0165 19.8211 9.55869 19.8211Z" fill="currentColor"/>
<path d="M17.565 23.1707C17.1072 23.1707 16.7275 22.791 16.7275 22.3332V7.39219C16.7275 6.93435 17.1072 6.55469 17.565 6.55469C18.0229 6.55469 18.4025 6.93435 18.4025 7.39219V22.3332C18.4025 22.791 18.0229 23.1707 17.565 23.1707Z" fill="currentColor"/>
</svg>
