<svg width="24" height="25" viewBox="0 0 24 25" fill="none" xmlns="http://www.w3.org/2000/svg">
<path d="M21 8.20584H3C2.59 8.20584 2.25 7.86389 2.25 7.45155C2.25 7.03921 2.59 6.69727 3 6.69727H21C21.41 6.69727 21.75 7.03921 21.75 7.45155C21.75 7.86389 21.41 8.20584 21 8.20584Z" fill="#1A1E25"/>
<path d="M21 13.2351H3C2.59 13.2351 2.25 12.8932 2.25 12.4808C2.25 12.0685 2.59 11.7266 3 11.7266H21C21.41 11.7266 21.75 12.0685 21.75 12.4808C21.75 12.8932 21.41 13.2351 21 13.2351Z" fill="#1A1E25"/>
<path d="M21 18.2644H3C2.59 18.2644 2.25 17.9225 2.25 17.5101C2.25 17.0978 2.59 16.7559 3 16.7559H21C21.41 16.7559 21.75 17.0978 21.75 17.5101C21.75 17.9225 21.41 18.2644 21 18.2644Z" fill="#1A1E25"/>
</svg>
