<svg width="42" height="42" viewBox="0 0 42 42" fill="none" xmlns="http://www.w3.org/2000/svg">
<path d="M14.5073 11.0075C13.7723 11.0075 13.1948 10.4125 13.1948 9.695V4.8125C13.1948 4.095 13.7723 3.5 14.5073 3.5C15.2423 3.5 15.8198 4.095 15.8198 4.8125V9.6775C15.8198 10.4125 15.2423 11.0075 14.5073 11.0075Z" fill="white"/>
<path d="M27.4927 11.0075C26.7577 11.0075 26.1802 10.4125 26.1802 9.695V4.8125C26.1802 4.0775 26.7752 3.5 27.4927 3.5C28.2277 3.5 28.8052 4.095 28.8052 4.8125V9.6775C28.8052 10.4125 28.2277 11.0075 27.4927 11.0075Z" fill="white"/>
<path d="M34.2475 7.875C33.0925 7.0175 31.43 7.84 31.43 9.2925V9.4675C31.43 11.515 29.96 13.405 27.9125 13.615C25.55 13.86 23.555 12.005 23.555 9.695V7.875C23.555 6.9125 22.7675 6.125 21.805 6.125H20.195C19.2325 6.125 18.445 6.9125 18.445 7.875V9.695C18.445 11.0775 17.7275 12.3025 16.6425 12.985C16.485 13.09 16.31 13.1775 16.135 13.265C15.9775 13.3525 15.8025 13.4225 15.61 13.475C15.4 13.545 15.1725 13.5975 14.9275 13.615C14.6475 13.65 14.3675 13.65 14.0875 13.615C13.8425 13.5975 13.615 13.545 13.405 13.475C13.23 13.4225 13.055 13.3525 12.88 13.265C12.705 13.1775 12.53 13.09 12.3725 12.985C11.27 12.215 10.57 10.885 10.57 9.4675V9.2925C10.57 7.945 9.135 7.14 7.9975 7.7175C7.98 7.735 7.9625 7.735 7.945 7.7525C7.875 7.7875 7.8225 7.8225 7.7525 7.875C7.7 7.9275 7.63 7.9625 7.5775 8.015C7.0875 8.4 6.65 8.8375 6.2825 9.31C6.09 9.52 5.9325 9.7475 5.7925 9.975C5.775 9.9925 5.7575 10.01 5.74 10.045C5.5825 10.2725 5.4425 10.535 5.32 10.78C5.285 10.815 5.2675 10.8325 5.2675 10.8675C5.1625 11.0775 5.0575 11.2875 4.9875 11.515C4.935 11.6025 4.9175 11.6725 4.8825 11.76C4.7775 12.0225 4.7075 12.285 4.6375 12.5475C4.5675 12.7925 4.515 13.055 4.48 13.3175C4.445 13.51 4.4275 13.7025 4.41 13.9125C4.3925 14.1575 4.375 14.4025 4.375 14.6475V29.9775C4.375 34.685 8.19 38.5 12.8975 38.5H29.1025C33.81 38.5 37.625 34.685 37.625 29.9775V14.6475C37.625 11.865 36.295 9.4325 34.2475 7.875ZM21 30.485H12.88C12.1625 30.485 11.5675 29.89 11.5675 29.1725C11.5675 28.4375 12.1625 27.8425 12.88 27.8425H21C21.735 27.8425 22.3125 28.4375 22.3125 29.1725C22.3125 29.89 21.735 30.485 21 30.485ZM25.865 23.9925H12.88C12.1625 23.9925 11.5675 23.3975 11.5675 22.68C11.5675 21.945 12.1625 21.35 12.88 21.35H25.865C26.6 21.35 27.195 21.945 27.195 22.68C27.195 23.3975 26.6 23.9925 25.865 23.9925Z" fill="white"/>
</svg>
