<svg width="40" height="40" viewBox="0 0 40 40" fill="none" xmlns="http://www.w3.org/2000/svg">
<path d="M5 18.3333L35 10V30L5 23.3333V18.3333Z" stroke="#FF4267" stroke-width="3.33333" stroke-linecap="round" stroke-linejoin="round"/>
<path d="M19.3333 28.0007C19.1582 28.6354 18.8598 29.2294 18.4551 29.7488C18.0505 30.2682 17.5475 30.7028 16.9748 31.0278C16.4022 31.3528 15.7712 31.5618 15.1178 31.643C14.4643 31.7241 13.8013 31.6757 13.1666 31.5007C12.5319 31.3256 11.9379 31.0272 11.4185 30.6225C10.8991 30.2178 10.4645 29.7148 10.1395 29.1422C9.81446 28.5696 9.60542 27.9385 9.52429 27.2851C9.44316 26.6317 9.49153 25.9687 9.66662 25.334" stroke="#FF4267" stroke-width="3.33333" stroke-linecap="round" stroke-linejoin="round"/>
</svg>
