<svg width="18" height="20" viewBox="0 0 18 20" fill="none" xmlns="http://www.w3.org/2000/svg">
<path fill-rule="evenodd" clip-rule="evenodd" d="M6.55854 4.43682H2.22841L4.22457 6.45406L3.76392 6.91958L1 4.12648L3.76392 1.33337L4.22457 1.79889L2.22841 3.81613H6.58982C6.73316 3.10461 7.35216 2.57475 8.09405 2.57475C8.948 2.57475 9.62956 3.27182 9.62956 4.1317V7.22891C9.88619 7.0346 10.2052 6.91958 10.5509 6.91958C11.2157 6.91958 11.7761 7.34008 11.9917 7.93014C12.2624 7.68799 12.6181 7.54027 13.0077 7.54027C13.8616 7.54027 14.5432 8.23434 14.5432 9.09052V9.09888C14.7998 8.90487 15.1188 8.79046 15.4645 8.79046C16.3184 8.79046 17 9.48522 17 10.3423V14.0575C17 16.9713 14.6626 19.3334 11.7793 19.3334C9.86731 19.3334 7.84948 18.4318 6.46077 15.875C4.45633 12.1846 1.89296 9.76433 3.11354 8.53086C3.98673 7.64846 5.35768 8.495 6.55854 9.63V4.43682ZM11.7785 18.7127C14.323 18.7127 16.3858 16.4874 16.3858 14.0575V11.7294V10.3344C16.3858 9.81964 15.9769 9.40234 15.4645 9.40234C14.9557 9.40234 14.5432 9.81894 14.5432 10.3344V10.6437H13.929V9.09599C13.929 8.57959 13.52 8.16096 13.0077 8.16096C12.4989 8.16096 12.0864 8.57778 12.0864 9.09599V10.023H11.4722V8.4753C11.4722 7.9589 11.0632 7.54027 10.5509 7.54027C10.042 7.54027 9.62956 7.95709 9.62956 8.4753V10.6437H9.01536V4.12973C9.01536 3.61374 8.60642 3.19544 8.09405 3.19544C7.58523 3.19544 7.17274 3.60952 7.17274 4.12973V11.1403C5.90847 9.77449 4.24399 8.27214 3.56186 8.9652C2.89412 9.64364 4.61481 11.5131 7.01758 15.5987C8.10019 17.4396 9.47004 18.7124 11.7785 18.7127Z" fill="#1A1E25" stroke="#1A1E25" stroke-width="0.5"/>
</svg>
