<svg  viewBox="0 0 26 29" fill="none" xmlns="http://www.w3.org/2000/svg">
<path fill-rule="evenodd" clip-rule="evenodd" d="M9.33781 5.65517H2.84261L5.83685 8.68104L5.14587 9.37931L1 5.18966L5.14587 1L5.83685 1.69828L2.84261 4.72414H9.38473C9.59974 3.65685 10.5282 2.86207 11.6411 2.86207C12.922 2.86207 13.9443 3.90767 13.9443 5.19748V9.84331C14.3293 9.55184 14.8078 9.37931 15.3263 9.37931C16.3236 9.37931 17.1642 10.0101 17.4875 10.8952C17.8936 10.5319 18.4271 10.3103 19.0115 10.3103C20.2924 10.3103 21.3148 11.3515 21.3148 12.6357V12.6483C21.6997 12.3572 22.1782 12.1856 22.6967 12.1856C23.9777 12.1856 25 13.2278 25 14.5133V20.0862C25 24.4569 21.4939 28 17.1689 28C14.301 28 11.2742 26.6477 9.19116 22.8125C6.18449 17.2768 2.33944 13.6464 4.17031 11.7962C5.48009 10.4726 7.53651 11.7424 9.33781 13.4449V5.65517ZM17.1677 27.069C20.9846 27.069 24.0787 23.731 24.0787 20.0862V16.594V14.5016C24.0787 13.7294 23.4653 13.1034 22.6967 13.1034C21.9335 13.1034 21.3148 13.7283 21.3148 14.5016V14.9655H20.3935V12.6439C20.3935 11.8693 19.7801 11.2414 19.0115 11.2414C18.2483 11.2414 17.6296 11.8666 17.6296 12.6439V14.0345H16.7083V11.7129C16.7083 10.9383 16.0949 10.3103 15.3263 10.3103C14.5631 10.3103 13.9443 10.9356 13.9443 11.7129V14.9655H13.023V5.19454C13.023 4.42055 12.4096 3.7931 11.6411 3.7931C10.8778 3.7931 10.2591 4.41422 10.2591 5.19454V15.7103C8.3627 13.6617 5.86599 11.4081 4.84279 12.4477C3.84118 13.4654 6.42221 16.2696 10.0264 22.3981C11.6503 25.1593 13.7051 27.0685 17.1677 27.069Z" fill="#FDFDFD" stroke="#FDFDFD"/>
</svg>
