<svg width="40" height="40" viewBox="0 0 40 40" fill="none" xmlns="http://www.w3.org/2000/svg">
<path d="M30 13.334C30 19.3557 23.5517 25.7157 21.0117 27.9923C20.7211 28.2143 20.3656 28.3345 20 28.3345C19.6344 28.3345 19.2789 28.2143 18.9883 27.9923C16.45 25.7157 10 19.3557 10 13.334C10 10.6818 11.0536 8.13828 12.9289 6.26292C14.8043 4.38755 17.3478 3.33398 20 3.33398C22.6522 3.33398 25.1957 4.38755 27.0711 6.26292C28.9464 8.13828 30 10.6818 30 13.334Z" stroke="#FFAF2A" stroke-width="3.33333" stroke-linecap="round" stroke-linejoin="round"/>
<path d="M20 16.6667C21.8409 16.6667 23.3333 15.1743 23.3333 13.3333C23.3333 11.4924 21.8409 10 20 10C18.159 10 16.6666 11.4924 16.6666 13.3333C16.6666 15.1743 18.159 16.6667 20 16.6667Z" stroke="#FFAF2A" stroke-width="3.33333" stroke-linecap="round" stroke-linejoin="round"/>
<path d="M14.5233 23.334H8.33994C7.99049 23.3341 7.64993 23.4441 7.3664 23.6484C7.08287 23.8527 6.87072 24.1409 6.75994 24.4723L3.41994 34.4723C3.33621 34.7228 3.31322 34.9897 3.35287 35.2508C3.39251 35.512 3.49366 35.76 3.64798 35.9743C3.80229 36.1887 4.00535 36.3633 4.24041 36.4838C4.47547 36.6043 4.7358 36.6672 4.99994 36.6673H34.9999C35.2639 36.6671 35.524 36.6042 35.7589 36.4838C35.9938 36.3634 36.1967 36.189 36.351 35.9748C36.5053 35.7607 36.6065 35.5129 36.6463 35.252C36.6861 34.9911 36.6634 34.7244 36.5799 34.474L33.2466 24.474C33.136 24.142 32.9237 23.8532 32.6399 23.6486C32.356 23.444 32.0149 23.3339 31.6649 23.334H25.4783" stroke="#FFAF2A" stroke-width="3.33333" stroke-linecap="round" stroke-linejoin="round"/>
</svg>
