<svg width="42" height="42" viewBox="0 0 42 42" fill="none" xmlns="http://www.w3.org/2000/svg">
<path d="M30.6773 13.5975C30.5548 13.58 30.4323 13.58 30.3098 13.5975C27.5973 13.51 25.4448 11.2875 25.4448 8.5575C25.4448 5.775 27.7023 3.5 30.5023 3.5C33.2848 3.5 35.5598 5.7575 35.5598 8.5575C35.5423 11.2875 33.3898 13.51 30.6773 13.5975Z" fill="white"/>
<path d="M36.3823 25.7257C34.4223 27.0382 31.6748 27.5282 29.1373 27.1957C29.8023 25.7607 30.1523 24.1682 30.1698 22.4882C30.1698 20.7382 29.7848 19.0757 29.0498 17.6232C31.6398 17.2732 34.3873 17.7632 36.3648 19.0757C39.1298 20.8957 39.1298 23.8882 36.3823 25.7257Z" fill="white"/>
<path d="M11.2698 13.5975C11.3923 13.58 11.5148 13.58 11.6373 13.5975C14.3498 13.51 16.5023 11.2875 16.5023 8.5575C16.5023 5.7575 14.2448 3.5 11.4448 3.5C8.66228 3.5 6.40479 5.7575 6.40479 8.5575C6.40479 11.2875 8.55729 13.51 11.2698 13.5975Z" fill="white"/>
<path d="M11.4625 22.4866C11.4625 24.1841 11.83 25.7941 12.495 27.2466C10.0275 27.5091 7.45496 26.9841 5.56496 25.7416C2.79996 23.9041 2.79996 20.9116 5.56496 19.0741C7.43746 17.8141 10.08 17.3066 12.565 17.5866C11.8475 19.0566 11.4625 20.7191 11.4625 22.4866Z" fill="white"/>
<path d="M21.2099 27.7725C21.0699 27.755 20.9124 27.755 20.7549 27.7725C17.5349 27.6675 14.9624 25.025 14.9624 21.77C14.9799 18.445 17.6574 15.75 20.9999 15.75C24.3249 15.75 27.0199 18.445 27.0199 21.77C27.0024 25.025 24.4474 27.6675 21.2099 27.7725Z" fill="white"/>
<path d="M15.5224 31.3941C12.8799 33.1616 12.8799 36.0666 15.5224 37.8166C18.5324 39.8291 23.4674 39.8291 26.4774 37.8166C29.1199 36.0491 29.1199 33.1441 26.4774 31.3941C23.4849 29.3816 18.5499 29.3816 15.5224 31.3941Z" fill="white"/>
</svg>
