<svg width="24" height="22" viewBox="0 0 24 22" fill="none" xmlns="http://www.w3.org/2000/svg">
<path d="M9.47998 18C7.6145 18 5.79092 17.4722 4.23984 16.4832C2.68876 15.4943 1.47983 14.0887 0.765946 12.4442C0.0520603 10.7996 -0.134725 8.99002 0.229211 7.24419C0.593147 5.49836 1.49146 3.89472 2.81055 2.63604C4.12964 1.37737 5.81026 0.520204 7.63989 0.172937C9.46951 -0.17433 11.366 0.00389951 13.0894 0.685088C14.8129 1.36628 16.286 2.51983 17.3224 3.99987C18.3588 5.47991 18.912 7.21997 18.912 9C18.9089 11.3861 17.9142 13.6736 16.146 15.3608C14.3779 17.0479 11.9806 17.9971 9.47998 18ZM9.47998 2C8.02905 2 6.61071 2.41055 5.40431 3.17972C4.19792 3.94889 3.25764 5.04214 2.7024 6.32122C2.14715 7.6003 2.00188 9.00777 2.28494 10.3656C2.568 11.7235 3.26668 12.9708 4.29264 13.9498C5.3186 14.9287 6.62575 15.5954 8.0488 15.8655C9.47184 16.1356 10.9469 15.997 12.2873 15.4672C13.6278 14.9373 14.7735 14.0401 15.5796 12.889C16.3857 11.7379 16.816 10.3845 16.816 9C16.8138 7.14414 16.0401 5.36489 14.6649 4.0526C13.2896 2.7403 11.4249 2.00212 9.47998 2V2Z" fill="currentColor"/>
<path d="M6.33599 9H4.23999C4.24165 7.6744 4.79426 6.40356 5.77659 5.46622C6.75892 4.52888 8.09077 4.00159 9.47999 4V6C8.64615 6 7.84646 6.31607 7.25685 6.87868C6.66723 7.44129 6.33599 8.20435 6.33599 9Z" fill="currentColor"/>
<path d="M22.7969 20.2931L18.3366 16.0371C17.8887 16.5505 17.3927 17.0238 16.8547 17.4511L21.315 21.7071C21.5127 21.8893 21.7774 21.9901 22.0522 21.9878C22.327 21.9855 22.5898 21.8803 22.7841 21.6949C22.9784 21.5095 23.0887 21.2587 23.091 20.9965C23.0934 20.7343 22.9878 20.4817 22.7969 20.2931Z" fill="currentColor"/>
</svg>
