<svg width="24" height="20" viewBox="0 0 24 20" fill="none" xmlns="http://www.w3.org/2000/svg">
<path d="M15.334 18.1248C19.9238 18.1248 23.6606 14.2915 23.6606 9.58317C23.6606 4.87484 19.9238 1.0415 15.334 1.0415C10.7441 1.0415 7.00728 4.87484 7.00728 9.58317C7.00728 14.2915 10.7441 18.1248 15.334 18.1248ZM15.334 2.2915C19.2577 2.2915 22.4421 5.5665 22.4421 9.58317C22.4421 13.5998 19.2577 16.8748 15.334 16.8748C11.4103 16.8748 8.22582 13.5998 8.22582 9.58317C8.22582 5.5665 11.4103 2.2915 15.334 2.2915Z" fill="#1A1E25"/>
<path d="M6.80418 18.9585C6.95852 18.9585 7.11287 18.9002 7.23473 18.7752L8.85944 17.1085C9.09503 16.8669 9.09503 16.4669 8.85944 16.2252C8.62386 15.9835 8.23393 15.9835 7.99834 16.2252L6.37362 17.8919C6.13804 18.1335 6.13804 18.5335 6.37362 18.7752C6.49548 18.9002 6.64983 18.9585 6.80418 18.9585Z" fill="#1A1E25"/>
</svg>
