<svg viewBox="0 0 26 26" fill="none" xmlns="http://www.w3.org/2000/svg">
<path fill-rule="evenodd" clip-rule="evenodd" d="M20.8873 2.53989L4.08365 6.74081C2.13459 7.22808 1.89127 9.89958 3.72025 10.7309L8.89753 13.0842C10.0336 13.6007 11.2752 13.746 12.4596 13.5407C12.2543 14.7252 12.3997 15.9667 12.9161 17.1028L15.2694 22.2801C16.1007 24.1091 18.7722 23.8657 19.2595 21.9167L23.4604 5.11299C23.8489 3.559 22.4413 2.1514 20.8873 2.53989ZM4.53407 8.5425C4.29094 8.60329 4.26059 8.93654 4.48874 9.04025L9.66603 11.3936C10.8435 11.9288 12.1839 11.8907 13.3129 11.3259C13.5252 11.2198 13.7299 11.095 13.9247 10.9519C13.9717 10.9174 14.0182 10.8818 14.064 10.8451L16.5436 8.86151C16.9382 8.54579 17.4545 9.06211 17.1388 9.45676L15.1552 11.9363C15.1185 11.9821 15.0829 12.0286 15.0484 12.0756C14.9053 12.2704 14.7805 12.4751 14.6744 12.6874C14.1096 13.8164 14.0715 15.1568 14.6068 16.3343L16.9601 21.5116C17.0638 21.7397 17.397 21.7094 17.4578 21.4662L21.6587 4.66256C21.7072 4.46871 21.5316 4.29312 21.3377 4.34159L4.53407 8.5425Z" fill="#0F1729"/>
</svg>
