<svg width="25" height="24" viewBox="0 0 25 24" fill="none" xmlns="http://www.w3.org/2000/svg">
<path d="M23.832 13.5V10.5L20.4281 10.057C20.2279 9.29471 19.91 8.56507 19.4849 7.892L21.5641 5.282L19.3445 3.161L16.6092 5.145C15.9038 4.73934 15.1391 4.43603 14.3403 4.245L13.876 1H10.732L10.2677 4.248C9.46886 4.43903 8.70419 4.74234 7.99882 5.148L5.26354 3.161L3.04073 5.282L5.11996 7.892C4.69483 8.56507 4.37696 9.29471 4.17676 10.057L0.776001 10.5V13.5L4.17991 13.943C4.3801 14.7053 4.69798 15.4349 5.1231 16.108L3.04387 18.718L5.26668 20.839L8.00196 18.855C8.70733 19.2607 9.472 19.564 10.2709 19.755L10.732 23H13.876L14.3403 19.752C15.1391 19.561 15.9038 19.2577 16.6092 18.852L19.3445 20.836L21.5673 18.715L19.488 16.105C19.9132 15.4319 20.231 14.7023 20.4312 13.94L23.832 13.5Z" stroke="currentColor" stroke-width="1.5" stroke-miterlimit="10" stroke-linecap="square"/>
<path d="M12.304 15C14.0404 15 15.448 13.6569 15.448 12C15.448 10.3431 14.0404 9 12.304 9C10.5677 9 9.16003 10.3431 9.16003 12C9.16003 13.6569 10.5677 15 12.304 15Z" stroke="currentColor" stroke-width="1.5" stroke-miterlimit="10" stroke-linecap="square"/>
</svg>
