<svg width="16" height="16" viewBox="0 0 16 16" fill="none" xmlns="http://www.w3.org/2000/svg">
<path d="M7.99967 14.1663H4.66634C2.23301 14.1663 0.833008 12.7663 0.833008 10.333V5.66634C0.833008 3.23301 2.23301 1.83301 4.66634 1.83301H11.333C13.7663 1.83301 15.1663 3.23301 15.1663 5.66634V7.66634C15.1663 7.93967 14.9397 8.16634 14.6663 8.16634C14.393 8.16634 14.1663 7.93967 14.1663 7.66634V5.66634C14.1663 3.75967 13.2397 2.83301 11.333 2.83301H4.66634C2.75967 2.83301 1.83301 3.75967 1.83301 5.66634V10.333C1.83301 12.2397 2.75967 13.1663 4.66634 13.1663H7.99967C8.27301 13.1663 8.49967 13.393 8.49967 13.6663C8.49967 13.9397 8.27301 14.1663 7.99967 14.1663Z" fill="#D52133"/>
<path d="M8.00018 8.57998C7.44018 8.57998 6.87351 8.40664 6.44018 8.0533L4.35351 6.38664C4.14018 6.2133 4.10018 5.89998 4.27351 5.68665C4.44685 5.47331 4.76017 5.43998 4.97351 5.60665L7.06017 7.27332C7.56684 7.67998 8.42684 7.67998 8.93351 7.27332L11.0202 5.60665C11.2335 5.43332 11.5468 5.46665 11.7202 5.68665C11.8935 5.89998 11.8602 6.21997 11.6402 6.38664L9.5535 8.0533C9.12684 8.40664 8.56018 8.57998 8.00018 8.57998Z" fill="#D52133"/>
<path d="M10.547 14.5201C10.2937 14.5201 10.0537 14.4267 9.88036 14.2534C9.6737 14.0467 9.58036 13.7467 9.62703 13.4334L9.7537 12.5334C9.78703 12.3001 9.92704 12.0201 10.0937 11.8534L12.4537 9.4934C12.7737 9.1734 13.087 9.00673 13.427 8.9734C13.8404 8.9334 14.2537 9.10673 14.6404 9.4934C15.027 9.88006 15.2004 10.2867 15.1604 10.7067C15.127 11.0401 14.9537 11.3601 14.6404 11.6801L12.2804 14.0401C12.1137 14.2067 11.8337 14.3467 11.6004 14.3801L10.7004 14.5067C10.647 14.5134 10.6004 14.5201 10.547 14.5201ZM13.5404 9.96675C13.5337 9.96675 13.527 9.96675 13.5204 9.96675C13.427 9.97341 13.3004 10.0601 13.1604 10.2001L10.8004 12.5601C10.7804 12.5801 10.747 12.6467 10.747 12.6734L10.627 13.5067L11.4604 13.3867C11.487 13.3801 11.5537 13.3467 11.5737 13.3267L13.9337 10.9667C14.0737 10.8201 14.1604 10.7001 14.167 10.6067C14.1804 10.4734 14.047 10.3134 13.9337 10.2001C13.827 10.0934 13.6737 9.96675 13.5404 9.96675Z" fill="#D52133"/>
<path d="M13.9471 12.1666C13.9004 12.1666 13.8537 12.16 13.8137 12.1466C12.9337 11.9 12.2337 11.2 11.9871 10.32C11.9137 10.0533 12.067 9.77995 12.3337 9.69995C12.6004 9.62661 12.8737 9.77996 12.9471 10.0466C13.1004 10.5933 13.5337 11.0266 14.0804 11.1799C14.347 11.2533 14.5004 11.5333 14.4271 11.8C14.3671 12.02 14.1671 12.1666 13.9471 12.1666Z" fill="#D52133"/>
</svg>
