<svg viewBox="0 0 24 25" fill="none" xmlns="http://www.w3.org/2000/svg">
<path d="M17.0007 20.9531H7.0007C2.7507 20.9531 1.3607 19.6831 1.2607 15.7231C1.2607 15.5231 1.3307 15.3231 1.4707 15.1831C1.6107 15.0431 1.8007 14.9531 2.0107 14.9531C3.5207 14.9531 4.7507 13.7131 4.7507 12.2031C4.7507 10.6931 3.5207 9.45312 2.0107 9.45312C1.8107 9.45312 1.6207 9.37313 1.4707 9.22313C1.3207 9.07313 1.2507 8.88312 1.2607 8.68312C1.3607 4.72312 2.7507 3.45312 7.0007 3.45312H17.0007C21.4107 3.45312 22.7507 4.79313 22.7507 9.20312V15.2031C22.7507 19.6131 21.4107 20.9531 17.0007 20.9531ZM2.7907 16.3831C2.9607 18.9231 3.8207 19.4531 7.0007 19.4531H17.0007C20.5807 19.4531 21.2507 18.7731 21.2507 15.2031V9.20312C21.2507 5.63313 20.5807 4.95312 17.0007 4.95312H7.0007C3.8207 4.95312 2.9607 5.49313 2.7907 8.02313C4.7607 8.40313 6.2507 10.1331 6.2507 12.2031C6.2507 14.2731 4.7607 16.0031 2.7907 16.3831Z" fill="#17A586"/>
<path d="M9 8.45312C8.59 8.45312 8.25 8.11312 8.25 7.70312V4.20312C8.25 3.79313 8.59 3.45312 9 3.45312C9.41 3.45312 9.75 3.79313 9.75 4.20312V7.70312C9.75 8.11312 9.41 8.45312 9 8.45312Z" fill="#17A586"/>
<path d="M9 20.9531C8.59 20.9531 8.25 20.6131 8.25 20.2031V16.7031C8.25 16.2931 8.59 15.9531 9 15.9531C9.41 15.9531 9.75 16.2931 9.75 16.7031V20.2031C9.75 20.6131 9.41 20.9531 9 20.9531Z" fill="#17A586"/>
<path d="M13.0401 15.8537C12.8001 15.8537 12.5601 15.7737 12.3601 15.6337C12.0001 15.3737 11.8201 14.9337 11.9001 14.4937L12.1101 13.3037L11.2401 12.4537C10.9201 12.1437 10.8101 11.6837 10.9401 11.2637C11.0801 10.8437 11.4401 10.5337 11.8801 10.4737L13.0801 10.2937L13.6201 9.20371C13.8201 8.80371 14.2201 8.55371 14.6601 8.55371C15.1101 8.55371 15.5101 8.80371 15.7001 9.20371L16.2401 10.2937L17.4401 10.4737C17.8801 10.5337 18.2401 10.8437 18.3801 11.2637C18.5201 11.6837 18.4001 12.1437 18.0801 12.4537L17.2101 13.3037L17.4201 14.4937C17.5001 14.9337 17.3201 15.3737 16.9601 15.6337C16.6001 15.8937 16.1301 15.9237 15.7401 15.7237L14.6701 15.1637L13.5901 15.7237C13.4201 15.8137 13.2301 15.8537 13.0401 15.8537ZM12.7701 11.8537L13.2801 12.3537C13.5601 12.6237 13.6801 13.0037 13.6201 13.3837L13.5001 14.0837L14.1301 13.7537C14.4701 13.5737 14.8701 13.5737 15.2101 13.7537L15.8401 14.0837L15.7201 13.3837C15.6601 12.9937 15.7801 12.6137 16.0601 12.3537L16.5701 11.8537L15.8701 11.7537C15.4901 11.6937 15.1601 11.4537 14.9901 11.1137L14.6801 10.4737L14.3701 11.1137C14.2001 11.4537 13.8701 11.6937 13.4901 11.7537L12.7701 11.8537Z" fill="#17A586"/>
</svg>
