<svg width="20" height="21" viewBox="0 0 20 21" fill="none" xmlns="http://www.w3.org/2000/svg">
<path d="M17.5001 6.10839C17.4834 6.10839 17.4584 6.10839 17.4334 6.10839C13.0251 5.66673 8.62505 5.50006 4.26672 5.94173L2.56672 6.10839C2.21672 6.14173 1.90839 5.89173 1.87505 5.54173C1.84172 5.19173 2.09172 4.89173 2.43339 4.85839L4.13339 4.69173C8.56672 4.24173 13.0584 4.41673 17.5584 4.85839C17.9001 4.89173 18.1501 5.20006 18.1167 5.54173C18.0917 5.86673 17.8167 6.10839 17.5001 6.10839Z" fill="#7A7A7A"/>
<path d="M7.08314 5.2665C7.0498 5.2665 7.01647 5.2665 6.9748 5.25817C6.64147 5.19984 6.40814 4.87484 6.46647 4.5415L6.6498 3.44984C6.78314 2.64984 6.96647 1.5415 8.90814 1.5415H11.0915C13.0415 1.5415 13.2248 2.6915 13.3498 3.45817L13.5331 4.5415C13.5915 4.88317 13.3581 5.20817 13.0248 5.25817C12.6831 5.3165 12.3581 5.08317 12.3081 4.74984L12.1248 3.6665C12.0081 2.9415 11.9831 2.79984 11.0998 2.79984H8.91647C8.03314 2.79984 8.01647 2.9165 7.89147 3.65817L7.6998 4.7415C7.6498 5.04984 7.38314 5.2665 7.08314 5.2665Z" fill="#7A7A7A"/>
<path d="M12.675 19.4582H7.325C4.41666 19.4582 4.3 17.8498 4.20833 16.5498L3.66666 8.15815C3.64166 7.81649 3.90833 7.51649 4.25 7.49149C4.6 7.47482 4.89166 7.73315 4.91666 8.07482L5.45833 16.4665C5.55 17.7332 5.58333 18.2082 7.325 18.2082H12.675C14.425 18.2082 14.4583 17.7332 14.5417 16.4665L15.0833 8.07482C15.1083 7.73315 15.4083 7.47482 15.75 7.49149C16.0917 7.51649 16.3583 7.80815 16.3333 8.15815L15.7917 16.5498C15.7 17.8498 15.5833 19.4582 12.675 19.4582Z" fill="#7A7A7A"/>
<path d="M11.3834 14.875H8.6084C8.26673 14.875 7.9834 14.5917 7.9834 14.25C7.9834 13.9083 8.26673 13.625 8.6084 13.625H11.3834C11.7251 13.625 12.0084 13.9083 12.0084 14.25C12.0084 14.5917 11.7251 14.875 11.3834 14.875Z" fill="#7A7A7A"/>
<path d="M12.0832 11.5415H7.9165C7.57484 11.5415 7.2915 11.2582 7.2915 10.9165C7.2915 10.5748 7.57484 10.2915 7.9165 10.2915H12.0832C12.4248 10.2915 12.7082 10.5748 12.7082 10.9165C12.7082 11.2582 12.4248 11.5415 12.0832 11.5415Z" fill="#7A7A7A"/>
</svg>
