<svg width="56" height="48" viewBox="0 0 56 48" fill="none" xmlns="http://www.w3.org/2000/svg">
<path d="M29.4161 11.8578L29.325 11.8311C28.9319 11.7158 28.704 11.3072 28.8228 10.9154L29.4161 11.8578ZM29.4161 11.8578L29.4208 11.8525M29.4161 11.8578L29.4208 11.8525M29.4208 11.8525C29.7841 11.9098 30.1437 11.6946 30.2517 11.3361C31.2014 8.19904 34.1948 6.0049 37.5324 6.0049C37.9417 6.0049 38.2781 5.67785 38.2781 5.26925C38.2781 4.86063 37.9417 4.53359 37.5324 4.53359C33.4065 4.53359 29.9372 7.23417 28.8229 10.9153L29.4208 11.8525Z" fill="#5A5A5A" stroke="#F9FFF9" stroke-width="0.3"/>
<path d="M45.8726 33.9659H42.2982C41.9692 33.9659 41.7024 33.7036 41.7024 33.3802C41.7024 33.0569 41.9692 32.7946 42.2982 32.7946H45.8726C50.7998 32.7946 54.8087 28.8536 54.8087 24.0099C54.8087 19.1662 50.7998 15.2252 45.8726 15.2252H45.7866C45.6139 15.2252 45.4496 15.1516 45.3364 15.0232C45.2232 14.8947 45.1722 14.7245 45.1969 14.5563C45.25 14.1916 45.2769 13.8251 45.2769 13.4683C45.2769 9.27048 41.8023 5.85486 37.5322 5.85486C35.8709 5.85486 34.2866 6.3652 32.9504 7.33109C32.6568 7.54318 32.2398 7.44906 32.07 7.13155C28.2858 0.0477807 18.4018 -0.903497 13.2774 5.25876C11.1188 7.85483 10.2706 11.2319 10.9502 14.5233C11.0251 14.8868 10.7421 15.2257 10.3664 15.2257H10.1277C5.2005 15.2257 1.19154 19.1667 1.19154 24.0103C1.19154 28.854 5.2005 32.795 10.1277 32.795H13.7021C14.031 32.795 14.2978 33.0573 14.2978 33.3807C14.2978 33.704 14.031 33.9663 13.7021 33.9663H10.1277C4.5434 33.9663 0 29.4999 0 24.0103C0 18.6747 4.29186 14.3057 9.66002 14.0648C9.15576 10.65 10.12 7.20557 12.3549 4.51751C17.8412 -2.08061 28.3554 -1.34104 32.8 6.01634C34.2179 5.14247 35.8404 4.68404 37.532 4.68404C42.7055 4.68404 46.8051 9.01281 46.4464 14.0702C51.7651 14.3635 56 18.7094 56 24.0099C56 29.4999 51.4566 33.9659 45.8723 33.9659L45.8726 33.9659Z" fill="#5A5A5A"/>
<path d="M12.8773 33.0495C12.8773 41.208 19.6283 47.8408 27.9211 47.8408C36.214 47.8408 42.9648 41.2079 42.9648 33.0495C42.9648 24.891 36.214 18.2582 27.9211 18.2582C19.6282 18.2582 12.8773 24.8911 12.8773 33.0495ZM14.3691 33.0495C14.3691 25.7077 20.4462 19.7298 27.9211 19.7298C35.3958 19.7298 41.4731 25.7075 41.4731 33.0495C41.4731 40.3914 35.3958 46.3692 27.9211 46.3692C20.4463 46.3692 14.3691 40.3915 14.3691 33.0495Z" fill="#5A5A5A" stroke="#F9FFF9" stroke-width="0.3"/>
<path d="M27.6078 38.9428C27.6078 39.2648 27.8727 39.5216 28.194 39.5216C28.5151 39.5216 28.7801 39.2652 28.7801 38.9428V27.795C28.7801 27.473 28.5152 27.2162 28.194 27.2162C27.8727 27.2162 27.6078 27.473 27.6078 27.795V38.9428Z" fill="#5A5A5A" stroke="#5A5A5A" stroke-width="0.3"/>
<path d="M31.9906 31.5291L32.0959 31.6358C31.9812 31.749 31.8308 31.8046 31.6822 31.8046L31.9906 31.5291ZM31.9906 31.5291C31.9055 31.613 31.7937 31.6546 31.6822 31.6546L31.9906 31.5291ZM31.9906 31.5291L32.0957 31.636C32.3259 31.4097 32.3259 31.042 32.0957 30.8157L28.6066 27.3857C28.3779 27.1609 28.008 27.1607 27.7794 27.3857L31.9906 31.5291ZM24.2902 31.636C24.5189 31.8608 24.8888 31.861 25.1174 31.636L24.2902 31.636ZM24.2902 31.636L24.3954 31.5291L27.7793 27.3858L24.2902 30.8157C24.06 31.042 24.06 31.4097 24.2902 31.636ZM31.2686 31.636C31.3831 31.7486 31.5333 31.8046 31.6822 31.8046L25.1175 31.6359L28.193 28.6125L31.2686 31.636Z" fill="#5A5A5A" stroke="#5A5A5A" stroke-width="0.3"/>
</svg>
