<svg width="42" height="42" viewBox="0 0 42 42" fill="none" xmlns="http://www.w3.org/2000/svg">
<path d="M20.9998 24.5C12.2323 24.5 5.09229 30.38 5.09229 37.625C5.09229 38.115 5.47729 38.5 5.96729 38.5H36.0323C36.5223 38.5 36.9073 38.115 36.9073 37.625C36.9073 30.38 29.7673 24.5 20.9998 24.5Z" fill="white"/>
<path d="M21 3.5C18.935 3.5 17.045 4.2175 15.54 5.425C13.5275 7.0175 12.25 9.485 12.25 12.25C12.25 13.895 12.705 15.435 13.5275 16.7475C15.0325 19.285 17.7975 21 21 21C23.205 21 25.2175 20.195 26.7575 18.8125C27.44 18.235 28.035 17.535 28.49 16.7475C29.295 15.435 29.75 13.895 29.75 12.25C29.75 7.42 25.83 3.5 21 3.5ZM25.5325 11.305L20.86 15.61C20.545 15.9075 20.1425 16.0475 19.74 16.0475C19.32 16.0475 18.9 15.89 18.585 15.575L16.4325 13.405C15.785 12.7575 15.785 11.725 16.4325 11.0775C17.08 10.43 18.1125 10.43 18.76 11.0775L19.7925 12.11L23.31 8.8725C23.975 8.26 25.0075 8.295 25.62 8.96C26.2325 9.6425 26.1975 10.6925 25.5325 11.305Z" fill="white"/>
</svg>
