<svg width="40" height="40" viewBox="0 0 40 40" fill="none" xmlns="http://www.w3.org/2000/svg">
<path d="M26.6667 35V31.6667C26.6667 29.8986 25.9643 28.2029 24.7141 26.9526C23.4638 25.7024 21.7682 25 20 25H10C8.23193 25 6.53624 25.7024 5.286 26.9526C4.03575 28.2029 3.33337 29.8986 3.33337 31.6667V35" stroke="#0890FE" stroke-width="3.33333" stroke-linecap="round" stroke-linejoin="round"/>
<path d="M15 18.3333C18.6819 18.3333 21.6667 15.3486 21.6667 11.6667C21.6667 7.98477 18.6819 5 15 5C11.3181 5 8.33337 7.98477 8.33337 11.6667C8.33337 15.3486 11.3181 18.3333 15 18.3333Z" stroke="#0890FE" stroke-width="3.33333" stroke-linecap="round" stroke-linejoin="round"/>
<path d="M26.6666 18.3333L30 21.6667L36.6666 15" stroke="#0890FE" stroke-width="3.33333" stroke-linecap="round" stroke-linejoin="round"/>
</svg>
