<svg width="15" height="13" viewBox="0 0 15 13" fill="none" xmlns="http://www.w3.org/2000/svg">
<path d="M12.4459 1.96129C12.7154 2.23242 12.9291 2.5543 13.075 2.90855C13.2208 3.2628 13.2959 3.64249 13.2959 4.02593C13.2959 4.40937 13.2208 4.78905 13.075 5.14331C12.9291 5.49756 12.7154 5.81944 12.4459 6.09057L7.49172 11.075L2.53756 6.09057C1.99331 5.54299 1.68756 4.80032 1.68756 4.02593C1.68756 3.25154 1.99331 2.50887 2.53756 1.96129C3.08181 1.41371 3.81997 1.10609 4.58965 1.10609C5.35933 1.10609 6.09749 1.41371 6.64174 1.96129L7.49172 2.81647L8.34171 1.96129C8.61119 1.69015 8.93112 1.47508 9.28322 1.32834C9.63531 1.1816 10.0127 1.10608 10.3938 1.10608C10.7749 1.10608 11.1523 1.1816 11.5044 1.32834C11.8565 1.47508 12.1764 1.69015 12.4459 1.96129V1.96129Z" stroke="#D52133" stroke-width="2" stroke-linecap="round" stroke-linejoin="round" fill="currentColor"/>
</svg>
