<svg width="32" height="32" viewBox="0 0 32 32" fill="none" xmlns="http://www.w3.org/2000/svg">
<path d="M6.93358 13.9468C6.68024 13.9468 6.41358 13.8402 6.22691 13.6535C5.94691 13.3602 5.85358 12.9335 6.01358 12.5602L8.49358 6.64016C8.54691 6.52016 8.57358 6.44016 8.61358 6.37349C10.5869 1.82683 13.1069 0.720161 17.5602 2.42683C17.8136 2.52016 18.0136 2.72016 18.1202 2.97349C18.2269 3.22683 18.2269 3.50683 18.1202 3.76016L14.2136 12.8268C14.0536 13.2002 13.6936 13.4268 13.2936 13.4268H9.49358C8.73358 13.4268 8.01358 13.5735 7.32024 13.8668C7.20024 13.9202 7.06691 13.9468 6.93358 13.9468ZM14.1469 3.66683C12.4936 3.66683 11.4802 4.74683 10.4269 7.20016C10.4136 7.24016 10.3869 7.28016 10.3736 7.32016L8.62691 11.4668C8.92024 11.4402 9.20025 11.4268 9.49358 11.4268H12.6269L15.8402 3.96016C15.2136 3.76016 14.6536 3.66683 14.1469 3.66683Z" fill="#D52133"/>
<path d="M24.3876 13.6932C24.2943 13.6932 24.1876 13.6798 24.0943 13.6532C23.5876 13.5065 23.0543 13.4265 22.4943 13.4265H13.2943C12.961 13.4265 12.641 13.2532 12.4543 12.9732C12.281 12.6932 12.241 12.3332 12.3743 12.0265L16.241 3.05316C16.441 2.57316 17.0276 2.23983 17.521 2.41316C17.681 2.4665 17.8276 2.53316 17.9876 2.59983L21.1343 3.91983C22.9743 4.67983 24.201 5.47983 25.001 6.43983C25.161 6.6265 25.2943 6.8265 25.4276 7.03983C25.5743 7.2665 25.7076 7.53316 25.801 7.81316C25.841 7.9065 25.9076 8.07983 25.9476 8.2665C26.321 9.53316 26.1343 11.0798 25.3343 13.0798C25.161 13.4532 24.7876 13.6932 24.3876 13.6932ZM14.8143 11.4265H22.5076C22.9343 11.4265 23.3476 11.4665 23.761 11.5332C24.1343 10.3732 24.2143 9.47983 24.001 8.75983C23.9743 8.63983 23.9476 8.5865 23.9343 8.53316C23.8543 8.31983 23.801 8.19983 23.7343 8.09316C23.641 7.9465 23.5743 7.8265 23.4676 7.7065C22.8943 7.01316 21.881 6.37316 20.361 5.7465L17.7343 4.65316L14.8143 11.4265Z" fill="#D52133"/>
<path d="M21.2 30.3334H10.8C10.4267 30.3334 10.08 30.3068 9.73333 30.2668C5.05333 29.9601 2.38667 27.2801 2.06667 22.5468C2.02667 22.2534 2 21.8934 2 21.5334V18.9334C2 15.9334 3.78667 13.2268 6.54667 12.0268C7.49333 11.6268 8.48 11.4268 9.50667 11.4268H22.52C23.28 11.4268 24.0133 11.5334 24.6933 11.7468C27.8267 12.6934 30.0267 15.6534 30.0267 18.9334V21.5334C30.0267 21.8268 30.0133 22.1068 30 22.3734C29.7067 27.5868 26.6667 30.3334 21.2 30.3334ZM9.49333 13.4268C8.73333 13.4268 8.01333 13.5734 7.32 13.8668C5.29333 14.7468 3.98667 16.7334 3.98667 18.9334V21.5334C3.98667 21.8134 4.01333 22.0934 4.04 22.3601C4.29333 26.1601 6.16 28.0268 9.90667 28.2801C10.24 28.3201 10.5067 28.3468 10.7867 28.3468H21.1867C25.5867 28.3468 27.7467 26.4134 27.96 22.2801C27.9733 22.0401 27.9867 21.8001 27.9867 21.5334V18.9334C27.9867 16.5201 26.3733 14.3601 24.08 13.6534C23.5733 13.5068 23.04 13.4268 22.48 13.4268H9.49333Z" fill="#D52133"/>
<path d="M2.98633 19.9336C2.43966 19.9336 1.98633 19.4802 1.98633 18.9336V15.0269C1.98633 10.8269 4.95966 7.20022 9.06633 6.40022C9.42633 6.33356 9.79966 6.46689 10.0397 6.74689C10.2663 7.02689 10.333 7.42689 10.1863 7.76022L7.85299 13.3336C7.74633 13.5736 7.55966 13.7602 7.333 13.8669C5.30633 14.7469 3.99966 16.7336 3.99966 18.9336C3.98633 19.4802 3.54633 19.9336 2.98633 19.9336ZM7.46633 9.09356C5.75966 10.0536 4.51966 11.7336 4.13299 13.6936C4.71966 13.0936 5.39966 12.5869 6.173 12.2136L7.46633 9.09356Z" fill="#D52133"/>
<path d="M29.0135 19.9335C28.4669 19.9335 28.0135 19.4802 28.0135 18.9335C28.0135 16.5202 26.4002 14.3602 24.1069 13.6535C23.8402 13.5735 23.6135 13.3869 23.4935 13.1335C23.3735 12.8802 23.3602 12.5869 23.4669 12.3335C24.0935 10.7735 24.2535 9.64019 24.0002 8.76019C23.9735 8.64019 23.9469 8.58686 23.9335 8.53353C23.7602 8.14686 23.8535 7.69353 24.1602 7.40019C24.4669 7.10686 24.9335 7.04019 25.3069 7.24019C28.2135 8.76019 30.0135 11.7469 30.0135 15.0269V18.9335C30.0135 19.4802 29.5602 19.9335 29.0135 19.9335ZM25.6669 12.1202C26.5069 12.5069 27.2535 13.0535 27.8802 13.7069C27.6269 12.4002 27.0002 11.2135 26.0802 10.2802C26.0135 10.8402 25.8802 11.4535 25.6669 12.1202Z" fill="#D52133"/>
</svg>
