<svg width="17" height="17" viewBox="0 0 17 17" fill="none" xmlns="http://www.w3.org/2000/svg">
<path d="M8.5 9.66699C8.22667 9.66699 8 9.44033 8 9.16699V5.66699C8 5.39366 8.22667 5.16699 8.5 5.16699C8.77333 5.16699 9 5.39366 9 5.66699V9.16699C9 9.44033 8.77333 9.66699 8.5 9.66699Z" fill="#D52133"/>
<path d="M8.50016 11.9998C8.32016 11.9998 8.15348 11.9332 8.02681 11.8065C7.96681 11.7398 7.92017 11.6665 7.88017 11.5865C7.84683 11.5065 7.8335 11.4198 7.8335 11.3332C7.8335 11.1598 7.90681 10.9865 8.02681 10.8598C8.27348 10.6131 8.72684 10.6131 8.97351 10.8598C9.09351 10.9865 9.16683 11.1598 9.16683 11.3332C9.16683 11.4198 9.14682 11.5065 9.11348 11.5865C9.08015 11.6665 9.03351 11.7398 8.97351 11.8065C8.84684 11.9332 8.68016 11.9998 8.50016 11.9998Z" fill="#D52133"/>
<path d="M8.49996 15.6667C8.05329 15.6667 7.59995 15.5534 7.19995 15.3201L3.23995 13.0334C2.43995 12.5667 1.93994 11.7067 1.93994 10.7801V6.22008C1.93994 5.29341 2.43995 4.43341 3.23995 3.96674L7.19995 1.68008C7.99995 1.21341 8.9933 1.21341 9.79997 1.68008L13.76 3.96674C14.56 4.43341 15.06 5.29341 15.06 6.22008V10.7801C15.06 11.7067 14.56 12.5667 13.76 13.0334L9.79997 15.3201C9.39997 15.5534 8.94663 15.6667 8.49996 15.6667ZM8.49996 2.3334C8.22663 2.3334 7.94662 2.40674 7.69995 2.54674L3.73995 4.8334C3.24662 5.12006 2.93994 5.64674 2.93994 6.22008V10.7801C2.93994 11.3467 3.24662 11.8801 3.73995 12.1667L7.69995 14.4534C8.19328 14.7401 8.80663 14.7401 9.29329 14.4534L13.2533 12.1667C13.7466 11.8801 14.0533 11.3534 14.0533 10.7801V6.22008C14.0533 5.65341 13.7466 5.12006 13.2533 4.8334L9.29329 2.54674C9.05329 2.40674 8.77329 2.3334 8.49996 2.3334Z" fill="#D52133"/>
</svg>
